<svg xmlns="http://www.w3.org/2000/svg" xmlns:xlink="http://www.w3.org/1999/xlink" width="500" zoomAndPan="magnify" viewBox="0 0 375 374.999991" height="500" preserveAspectRatio="xMidYMid meet" version="1.0"><defs><clipPath id="id1"><path d="M 26 74 L 138 74 L 138 187.5 L 26 187.5 Z M 26 74 " clip-rule="nonzero"/></clipPath><clipPath id="id2"><path d="M 46 82 L 109 82 L 109 187.5 L 46 187.5 Z M 46 82 " clip-rule="nonzero"/></clipPath><clipPath id="id3"><path d="M 80 53 L 128 53 L 128 187.5 L 80 187.5 Z M 80 53 " clip-rule="nonzero"/></clipPath><clipPath id="id4"><path d="M 87 76 L 114 76 L 114 187.5 L 87 187.5 Z M 87 76 " clip-rule="nonzero"/></clipPath><clipPath id="id5"><path d="M 99 138 L 132 138 L 132 187.5 L 99 187.5 Z M 99 138 " clip-rule="nonzero"/></clipPath><clipPath id="id6"><path d="M 98 138 L 127 138 L 127 187.5 L 98 187.5 Z M 98 138 " clip-rule="nonzero"/></clipPath><clipPath id="id7"><path d="M 79 0.140625 L 171.824219 0.140625 L 171.824219 88.5 L 79 88.5 Z M 79 0.140625 " clip-rule="nonzero"/></clipPath></defs><path fill="rgb(34.899902%, 29.798889%, 66.268921%)" d="M 58.039062 91.820312 C 70.191406 99.652344 87.839844 99.597656 110.984375 91.664062 C 114.824219 84.695312 113.285156 79.664062 106.363281 76.558594 C 101.019531 74.636719 100.664062 68.167969 105.304688 57.15625 C 110.117188 45.5625 106.734375 37.394531 95.160156 32.652344 C 84.953125 36.917969 90.359375 25.839844 78.414062 25.828125 C 73.328125 25.824219 67.320312 27.710938 64.625 32.203125 C 56.839844 31.476562 53.566406 34.847656 52.527344 38.105469 C 51.691406 40.710938 52.199219 43.601562 52.488281 46.210938 C 52.699219 48.160156 52.789062 49.953125 52.101562 51.347656 C 49.695312 56.21875 43.164062 59.40625 44.429688 65.140625 C 45.59375 70.4375 51.179688 70.359375 51.207031 73.714844 C 51.234375 77.105469 46.601562 81.132812 47.742188 85.515625 C 49.207031 91.164062 60.078125 86.007812 58.039062 91.820312 " fill-opacity="1" fill-rule="evenodd"/><path fill="rgb(96.078491%, 46.269226%, 57.249451%)" d="M 73.242188 79.101562 C 81.304688 79.46875 86.460938 78.894531 88.707031 77.375 C 87.136719 74.695312 86.957031 70.125 88.175781 63.664062 C 78.621094 68.671875 73.839844 71.179688 73.839844 71.179688 C 73.433594 76.429688 73.234375 79.066406 73.242188 79.101562 " fill-opacity="1" fill-rule="evenodd"/><path fill="rgb(97.648621%, 68.238831%, 43.528748%)" d="M 79.425781 76.945312 C 79.308594 76.945312 79.191406 76.945312 79.070312 76.941406 C 78.171875 76.933594 75.566406 76.582031 73.867188 76.582031 C 73.710938 76.582031 73.5625 76.585938 73.421875 76.59375 C 73.472656 75.953125 73.53125 75.195312 73.597656 74.3125 C 77.117188 73.867188 81.039062 71.417969 85.367188 66.972656 C 86.171875 65.933594 86.925781 64.921875 87.636719 63.945312 C 87.8125 63.851562 87.996094 63.757812 88.175781 63.664062 C 87.644531 66.476562 87.378906 68.933594 87.378906 71.03125 C 87.378906 72.558594 87.519531 73.898438 87.796875 75.046875 C 86.515625 75.492188 85.058594 76.246094 83.890625 76.5 C 82.523438 76.796875 81.035156 76.945312 79.425781 76.945312 " fill-opacity="1" fill-rule="nonzero"/><path fill="rgb(96.078491%, 46.269226%, 57.249451%)" d="M 65.148438 42.183594 C 97.324219 34.539062 104.066406 42.800781 85.367188 66.972656 C 79.867188 72.621094 75.023438 75.042969 70.832031 74.234375 C 68.890625 73.972656 66.851562 70.128906 64.714844 62.703125 C 62.5 53.605469 62.644531 46.765625 65.148438 42.183594 " fill-opacity="1" fill-rule="evenodd"/><path fill="rgb(97.648621%, 68.238831%, 43.528748%)" d="M 72.433594 74.386719 C 71.890625 74.386719 71.355469 74.335938 70.832031 74.234375 C 68.890625 73.972656 66.851562 70.128906 64.714844 62.703125 C 63.675781 58.429688 63.15625 54.65625 63.15625 51.378906 C 63.15625 47.679688 63.820312 44.613281 65.148438 42.183594 C 72.878906 40.347656 79.144531 39.429688 83.941406 39.429688 C 91.761719 39.429688 95.675781 41.875 95.675781 46.765625 C 95.675781 50.8125 92.996094 56.539062 87.636719 63.945312 C 86.925781 64.921875 86.171875 65.933594 85.367188 66.972656 C 81.039062 71.417969 77.117188 73.867188 73.597656 74.3125 C 73.207031 74.359375 72.816406 74.386719 72.433594 74.386719 " fill-opacity="1" fill-rule="nonzero"/><path fill="rgb(96.078491%, 46.269226%, 57.249451%)" d="M 71.082031 62.914062 C 69.90625 63.046875 68.15625 62.902344 68.320312 61.886719 C 68.414062 61.308594 69.21875 60.617188 69.542969 59.859375 C 70.335938 58.015625 70.507812 56.148438 70.792969 56.167969 C 71.410156 56.203125 71.378906 58.007812 72.011719 59.59375 C 72.625 61.128906 74.539062 62.511719 71.082031 62.914062 " fill-opacity="1" fill-rule="evenodd"/><path fill="rgb(12.939453%, 14.118958%, 35.289001%)" d="M 89.761719 60.886719 C 88.496094 62.789062 87.035156 64.816406 85.367188 66.972656 C 79.867188 72.621094 75.023438 75.042969 70.832031 74.234375 C 68.890625 73.972656 66.851562 70.128906 64.714844 62.703125 C 64.328125 61.113281 64.011719 59.59375 63.769531 58.140625 C 69.585938 62.476562 76.765625 61.890625 85.304688 56.382812 C 87.367188 57.851562 88.851562 59.355469 89.761719 60.886719 " fill-opacity="1" fill-rule="evenodd"/><path fill="rgb(12.939453%, 14.118958%, 35.289001%)" d="M 89.984375 61.035156 C 89.355469 61.980469 88.671875 62.964844 87.933594 63.992188 C 87.199219 65.011719 86.414062 66.058594 85.582031 67.136719 L 85.558594 67.164062 C 82.789062 70.007812 80.179688 72.042969 77.730469 73.265625 C 75.253906 74.503906 72.933594 74.914062 70.78125 74.5 C 69.722656 74.347656 68.664062 73.273438 67.605469 71.28125 C 66.578125 69.34375 65.527344 66.507812 64.453125 62.777344 L 64.449219 62.746094 C 64.253906 61.957031 64.082031 61.179688 63.921875 60.425781 C 63.761719 59.652344 63.625 58.90625 63.503906 58.183594 C 63.480469 58.039062 63.578125 57.898438 63.726562 57.875 C 63.800781 57.863281 63.875 57.882812 63.933594 57.925781 C 66.785156 60.050781 69.972656 60.96875 73.496094 60.683594 C 77.039062 60.394531 80.929688 58.882812 85.15625 56.15625 C 85.253906 56.09375 85.375 56.097656 85.460938 56.164062 C 86.503906 56.90625 87.40625 57.660156 88.160156 58.421875 C 88.917969 59.1875 89.527344 59.964844 89.992188 60.746094 C 90.046875 60.839844 90.039062 60.953125 89.984375 61.035156 Z M 87.496094 63.675781 C 88.183594 62.722656 88.832031 61.789062 89.441406 60.878906 C 89.007812 60.179688 88.453125 59.484375 87.769531 58.800781 C 87.078125 58.097656 86.25 57.398438 85.292969 56.707031 C 81.042969 59.425781 77.125 60.929688 73.535156 61.222656 C 70.101562 61.503906 66.972656 60.675781 64.148438 58.746094 C 64.242188 59.265625 64.34375 59.789062 64.453125 60.316406 C 64.609375 61.066406 64.78125 61.835938 64.972656 62.621094 L 64.976562 62.628906 C 66.039062 66.324219 67.074219 69.125 68.085938 71.027344 C 69.058594 72.863281 69.984375 73.839844 70.859375 73.964844 L 70.882812 73.96875 C 72.917969 74.359375 75.121094 73.964844 77.488281 72.78125 C 79.878906 71.589844 82.4375 69.589844 85.160156 66.792969 C 85.992188 65.71875 86.773438 64.679688 87.496094 63.675781 " fill-opacity="1" fill-rule="nonzero"/><path fill="rgb(34.899902%, 29.798889%, 66.268921%)" d="M 88.019531 51.402344 C 99.085938 52.824219 101.335938 48.511719 94.777344 38.46875 C 79.546875 32.789062 67.976562 33.699219 60.058594 41.195312 C 62.558594 50.414062 69.300781 49.257812 73.582031 46.738281 C 74.359375 46.277344 76.03125 45.058594 77.566406 44.515625 C 78.847656 44.0625 80.03125 44.078125 80.519531 45.394531 C 80.710938 45.910156 80.738281 46.398438 80.734375 46.882812 C 80.710938 51.433594 83.914062 53.054688 88.019531 51.402344 " fill-opacity="1" fill-rule="evenodd"/><path fill="rgb(12.939453%, 14.118958%, 35.289001%)" d="M 78.691406 56.855469 C 78.695312 56.222656 78.238281 55.710938 77.671875 55.710938 C 77.105469 55.710938 76.644531 56.222656 76.644531 56.855469 C 76.640625 57.488281 77.097656 58 77.664062 58 C 78.230469 58 78.691406 57.488281 78.691406 56.855469 " fill-opacity="1" fill-rule="evenodd"/><path fill="rgb(12.939453%, 14.118958%, 35.289001%)" d="M 67.859375 55.753906 C 67.859375 55.15625 67.425781 54.667969 66.894531 54.667969 C 66.355469 54.667969 65.921875 55.15625 65.917969 55.753906 C 65.914062 56.351562 66.347656 56.835938 66.882812 56.835938 C 67.421875 56.835938 67.855469 56.351562 67.859375 55.753906 " fill-opacity="1" fill-rule="evenodd"/><path fill="rgb(12.939453%, 14.118958%, 35.289001%)" d="M 75.433594 53.660156 C 75.261719 53.804688 75.003906 53.78125 74.859375 53.609375 C 74.71875 53.441406 74.738281 53.183594 74.910156 53.039062 C 75.785156 52.304688 76.8125 51.953125 77.867188 51.933594 C 78.972656 51.90625 80.113281 52.246094 81.136719 52.875 C 81.328125 52.992188 81.386719 53.242188 81.273438 53.433594 C 81.15625 53.625 80.90625 53.683594 80.714844 53.566406 C 79.816406 53.019531 78.828125 52.71875 77.878906 52.742188 C 77.007812 52.761719 76.160156 53.050781 75.433594 53.660156 " fill-opacity="1" fill-rule="nonzero"/><path fill="rgb(12.939453%, 14.118958%, 35.289001%)" d="M 64.949219 52.8125 C 64.761719 52.933594 64.507812 52.882812 64.382812 52.699219 C 64.257812 52.515625 64.308594 52.261719 64.5 52.136719 C 65.324219 51.589844 66.242188 51.386719 67.148438 51.46875 C 68.105469 51.554688 69.050781 51.960938 69.871094 52.601562 C 70.046875 52.738281 70.078125 52.992188 69.941406 53.167969 C 69.800781 53.34375 69.546875 53.375 69.371094 53.238281 C 68.671875 52.691406 67.871094 52.347656 67.074219 52.277344 C 66.34375 52.207031 65.609375 52.371094 64.949219 52.8125 " fill-opacity="1" fill-rule="nonzero"/><path fill="rgb(98.429871%, 79.60968%, 83.529663%)" d="M 59.796875 41.265625 C 59.757812 41.121094 59.84375 40.972656 59.988281 40.933594 C 60.132812 40.894531 60.28125 40.980469 60.320312 41.125 C 60.707031 42.542969 61.191406 43.710938 61.753906 44.660156 C 62.828125 46.476562 64.179688 47.492188 65.628906 47.949219 C 67.085938 48.414062 68.652344 48.320312 70.144531 47.917969 C 71.320312 47.601562 72.449219 47.089844 73.441406 46.503906 C 73.625 46.398438 73.855469 46.246094 74.125 46.074219 L 74.144531 46.0625 C 75.027344 45.492188 76.289062 44.683594 77.476562 44.261719 C 78.160156 44.019531 78.824219 43.902344 79.398438 44.027344 C 80.003906 44.15625 80.492188 44.542969 80.773438 45.300781 C 80.875 45.582031 80.9375 45.851562 80.96875 46.117188 C 81 46.375 81.003906 46.628906 81.003906 46.882812 C 81 47.863281 81.148438 48.703125 81.425781 49.390625 C 81.742188 50.175781 82.226562 50.765625 82.835938 51.160156 C 83.457031 51.554688 84.207031 51.761719 85.054688 51.765625 C 85.921875 51.769531 86.890625 51.566406 87.921875 51.152344 C 88.058594 51.097656 88.21875 51.164062 88.269531 51.304688 C 88.328125 51.441406 88.261719 51.601562 88.121094 51.652344 C 87.027344 52.09375 85.992188 52.308594 85.054688 52.304688 C 84.101562 52.300781 83.25 52.066406 82.546875 51.613281 C 81.835938 51.15625 81.285156 50.480469 80.925781 49.59375 C 80.621094 48.839844 80.457031 47.933594 80.464844 46.882812 C 80.464844 46.652344 80.457031 46.417969 80.429688 46.183594 C 80.402344 45.953125 80.351562 45.722656 80.265625 45.488281 C 80.058594 44.929688 79.710938 44.648438 79.285156 44.554688 C 78.820312 44.457031 78.253906 44.558594 77.65625 44.773438 C 76.523438 45.171875 75.296875 45.960938 74.4375 46.515625 L 74.417969 46.527344 C 74.144531 46.707031 73.90625 46.859375 73.71875 46.96875 C 72.683594 47.578125 71.511719 48.109375 70.285156 48.441406 C 68.703125 48.867188 67.03125 48.960938 65.46875 48.464844 C 63.894531 47.964844 62.4375 46.875 61.289062 44.9375 C 60.703125 43.945312 60.195312 42.734375 59.796875 41.265625 " fill-opacity="1" fill-rule="nonzero"/><g clip-path="url(#id1)"><path fill="rgb(96.078491%, 46.269226%, 57.249451%)" d="M 46.875 187.5 C 48.757812 187.5 49.699219 187.5 49.699219 187.5 C 49.699219 187.5 78.257812 187.5 135.375 187.5 C 140.707031 175.371094 136.960938 149.332031 124.136719 109.371094 C 122.117188 102.664062 118.996094 97.257812 114.773438 93.152344 C 107.90625 86.46875 101.015625 87.390625 95.460938 81.867188 C 93.542969 79.957031 91.660156 75.460938 90 74.8125 C 88.585938 74.265625 85.835938 76.074219 83.890625 76.5 C 82.421875 76.816406 80.816406 76.964844 79.070312 76.941406 C 77.808594 76.925781 73.15625 76.242188 72.425781 76.804688 C 71.480469 77.53125 71.8125 80.925781 70.324219 83.042969 C 69.964844 83.550781 69.539062 84.015625 69.042969 84.429688 C 66.3125 86.726562 56 89.757812 51.464844 92.183594 C 43.121094 96.640625 40.933594 100.453125 37.609375 108.996094 C 28.984375 131.167969 18.476562 180.554688 35.941406 182.183594 C 39.066406 182.472656 42.539062 181.722656 46.960938 180.28125 C 46.730469 184.96875 46.875 187.5 46.875 187.5 " fill-opacity="1" fill-rule="evenodd"/></g><g clip-path="url(#id2)"><path fill="rgb(12.939453%, 14.118958%, 35.289001%)" d="M 46.605469 187.5 L 46.605469 187.496094 C 46.707031 185.226562 46.828125 182.957031 46.941406 180.683594 C 48.289062 154.433594 49.96875 133.652344 51.988281 118.347656 C 54.003906 103.015625 56.363281 93.152344 59.0625 88.757812 C 59.09375 88.703125 59.144531 88.660156 59.203125 88.636719 L 59.269531 88.609375 C 62.714844 87.285156 66.183594 85.957031 68.078125 84.785156 C 68.136719 84.746094 68.210938 84.726562 68.28125 84.738281 C 68.429688 84.765625 68.523438 84.90625 68.496094 85.054688 C 67.957031 87.730469 67.472656 90.757812 67.078125 93.75 C 66.546875 97.800781 66.171875 101.796875 66.03125 104.792969 C 65.898438 107.660156 65.925781 109.566406 66.175781 109.613281 L 66.269531 109.644531 C 67.253906 110.195312 74.242188 110.652344 80.488281 110.703125 C 85.394531 110.746094 89.8125 110.558594 90.382812 110.003906 C 90.242188 105.71875 91.136719 100.203125 92.277344 95.058594 C 93.425781 89.882812 94.832031 85.070312 95.699219 82.265625 L 95.761719 82.15625 C 95.863281 82.046875 96.035156 82.039062 96.144531 82.136719 C 97.234375 83.136719 98.375 83.902344 99.558594 84.550781 C 100.742188 85.195312 101.964844 85.71875 103.214844 86.222656 C 103.335938 86.261719 103.414062 86.382812 103.394531 86.511719 C 100.359375 107.453125 102.109375 141.09375 108.648438 187.433594 L 108.65625 187.5 L 46.605469 187.5 " fill-opacity="1" fill-rule="evenodd"/></g><path fill="rgb(34.899902%, 29.798889%, 66.268921%)" d="M 74.148438 80.777344 C 74.179688 80.632812 74.324219 80.539062 74.46875 80.566406 C 74.613281 80.59375 74.707031 80.738281 74.675781 80.882812 C 74.589844 81.246094 74.53125 81.597656 74.492188 81.933594 C 74.453125 82.261719 74.4375 82.578125 74.441406 82.878906 C 74.441406 83.027344 74.320312 83.152344 74.171875 83.15625 C 74.023438 83.164062 73.898438 83.046875 73.898438 82.898438 C 73.894531 82.578125 73.914062 82.238281 73.957031 81.882812 C 73.996094 81.53125 74.058594 81.164062 74.148438 80.777344 Z M 89.550781 79.773438 C 89.476562 79.644531 89.523438 79.480469 89.65625 79.402344 C 89.785156 79.328125 89.953125 79.371094 90.023438 79.5 C 90.296875 79.980469 90.5625 80.347656 90.816406 80.597656 C 90.921875 80.703125 90.921875 80.871094 90.816406 80.980469 C 90.710938 81.085938 90.539062 81.089844 90.433594 80.988281 C 90.140625 80.703125 89.847656 80.296875 89.550781 79.773438 Z M 86.609375 80.570312 C 86.546875 80.4375 86.601562 80.273438 86.738281 80.207031 C 86.871094 80.140625 87.035156 80.195312 87.097656 80.328125 C 87.257812 80.65625 87.398438 80.941406 87.523438 81.179688 C 87.648438 81.417969 87.761719 81.625 87.863281 81.792969 C 87.941406 81.914062 87.898438 82.085938 87.769531 82.164062 C 87.644531 82.242188 87.476562 82.207031 87.398438 82.078125 C 87.292969 81.90625 87.175781 81.691406 87.042969 81.4375 C 86.90625 81.179688 86.761719 80.890625 86.609375 80.570312 Z M 81.3125 81.054688 C 81.296875 80.90625 81.40625 80.769531 81.558594 80.753906 C 81.707031 80.734375 81.835938 80.839844 81.851562 80.988281 C 81.890625 81.363281 81.9375 81.699219 81.992188 81.996094 C 82.050781 82.289062 82.113281 82.550781 82.1875 82.769531 C 82.238281 82.910156 82.160156 83.066406 82.019531 83.117188 C 81.878906 83.167969 81.722656 83.09375 81.675781 82.953125 C 81.59375 82.710938 81.519531 82.425781 81.460938 82.109375 C 81.398438 81.792969 81.351562 81.4375 81.3125 81.054688 Z M 76.960938 80.992188 C 76.972656 80.84375 77.105469 80.730469 77.253906 80.738281 C 77.402344 80.746094 77.511719 80.875 77.5 81.023438 C 77.464844 81.46875 77.445312 81.851562 77.441406 82.171875 C 77.441406 82.484375 77.457031 82.742188 77.488281 82.9375 C 77.511719 83.085938 77.414062 83.226562 77.265625 83.253906 C 77.117188 83.28125 76.976562 83.1875 76.953125 83.039062 C 76.917969 82.816406 76.898438 82.527344 76.898438 82.183594 C 76.902344 81.84375 76.921875 81.445312 76.960938 80.992188 " fill-opacity="1" fill-rule="nonzero"/><g clip-path="url(#id3)"><path fill="rgb(98.429871%, 79.60968%, 83.529663%)" d="M 118.394531 53.382812 L 127.035156 55.765625 C 127.25 55.828125 127.378906 56.050781 127.320312 56.265625 L 90.964844 187.5 L 80.820312 187.5 L 117.894531 53.667969 C 117.953125 53.453125 118.179688 53.324219 118.394531 53.382812 " fill-opacity="1" fill-rule="evenodd"/></g><path fill="rgb(98.81897%, 79.998779%, 36.859131%)" d="M 60.09375 105.628906 C 61.457031 105.628906 62.535156 106.734375 62.503906 108.09375 C 62.46875 109.453125 61.339844 110.558594 59.972656 110.558594 C 58.609375 110.558594 57.53125 109.453125 57.566406 108.09375 C 57.597656 106.734375 58.730469 105.628906 60.09375 105.628906 " fill-opacity="1" fill-rule="evenodd"/><path fill="rgb(98.81897%, 79.998779%, 36.859131%)" d="M 96.296875 106.316406 C 97.589844 106.316406 98.613281 107.363281 98.582031 108.652344 C 98.550781 109.945312 97.476562 110.988281 96.183594 110.988281 C 94.890625 110.988281 93.867188 109.945312 93.898438 108.652344 C 93.929688 107.363281 95.003906 106.316406 96.296875 106.316406 " fill-opacity="1" fill-rule="evenodd"/><g clip-path="url(#id4)"><path fill="rgb(34.899902%, 29.798889%, 66.268921%)" d="M 91.460938 172.175781 C 91.496094 172.03125 91.648438 171.949219 91.789062 171.988281 C 91.933594 172.027344 92.019531 172.175781 91.980469 172.320312 L 88.449219 185.0625 C 88.410156 185.207031 88.261719 185.292969 88.117188 185.253906 C 87.972656 185.210938 87.890625 185.0625 87.925781 184.917969 L 91.460938 172.175781 M 109.953125 109.675781 C 109.992188 109.53125 110.140625 109.449219 110.285156 109.488281 C 110.433594 109.527344 110.515625 109.675781 110.476562 109.820312 L 107.492188 120.585938 C 107.453125 120.730469 107.304688 120.816406 107.160156 120.777344 C 107.015625 120.734375 106.929688 120.585938 106.96875 120.445312 L 109.953125 109.675781 M 108.707031 100.042969 C 108.667969 100.1875 108.519531 100.269531 108.375 100.230469 C 108.230469 100.191406 108.144531 100.042969 108.1875 99.898438 L 108.542969 98.613281 C 108.582031 98.472656 108.730469 98.386719 108.875 98.425781 C 109.019531 98.464844 109.105469 98.613281 109.066406 98.757812 L 108.707031 100.042969 M 109.074219 90.847656 C 109.113281 90.703125 109.261719 90.617188 109.40625 90.660156 C 109.550781 90.699219 109.636719 90.847656 109.59375 90.992188 L 108.820312 93.789062 C 108.78125 93.929688 108.632812 94.015625 108.488281 93.976562 C 108.34375 93.9375 108.257812 93.789062 108.296875 93.644531 L 109.074219 90.847656 M 113.0625 76.441406 C 113.101562 76.296875 113.253906 76.214844 113.394531 76.253906 C 113.539062 76.292969 113.625 76.441406 113.585938 76.585938 L 110.078125 89.242188 C 110.039062 89.386719 109.890625 89.472656 109.746094 89.433594 C 109.601562 89.390625 109.515625 89.242188 109.558594 89.097656 L 113.0625 76.441406 M 98.53125 133.398438 C 98.570312 133.253906 98.71875 133.167969 98.867188 133.207031 C 99.007812 133.246094 99.09375 133.398438 99.054688 133.539062 L 97.886719 137.75 C 97.847656 137.894531 97.699219 137.976562 97.554688 137.9375 C 97.410156 137.898438 97.324219 137.75 97.367188 137.605469 L 98.53125 133.398438 M 97.972656 131.363281 C 98.011719 131.21875 98.164062 131.132812 98.304688 131.175781 C 98.449219 131.214844 98.535156 131.363281 98.496094 131.507812 L 96.078125 140.238281 C 96.039062 140.382812 95.886719 140.464844 95.746094 140.425781 C 95.601562 140.386719 95.515625 140.238281 95.554688 140.09375 L 97.972656 131.363281 M 92.148438 155.539062 C 92.1875 155.394531 92.335938 155.308594 92.480469 155.351562 C 92.625 155.390625 92.707031 155.539062 92.667969 155.683594 L 91.503906 159.890625 C 91.464844 160.03125 91.3125 160.117188 91.171875 160.078125 C 91.027344 160.039062 90.941406 159.890625 90.980469 159.746094 L 92.148438 155.539062 M 89.816406 163.953125 C 89.855469 163.808594 90.003906 163.722656 90.148438 163.761719 C 90.292969 163.804688 90.378906 163.953125 90.339844 164.097656 L 89.753906 166.203125 C 89.714844 166.34375 89.566406 166.429688 89.421875 166.390625 C 89.277344 166.347656 89.191406 166.203125 89.234375 166.058594 L 89.816406 163.953125 M 94.183594 167.117188 C 94.222656 166.976562 94.375 166.890625 94.515625 166.929688 C 94.660156 166.96875 94.746094 167.117188 94.703125 167.261719 L 89.097656 187.5 L 88.539062 187.5 L 94.183594 167.117188 " fill-opacity="1" fill-rule="nonzero"/></g><path fill="rgb(98.81897%, 79.998779%, 36.859131%)" d="M 63.191406 146.488281 C 63.191406 146.636719 63.070312 146.761719 62.921875 146.765625 C 62.769531 146.769531 62.648438 146.648438 62.652344 146.5 C 62.667969 142.054688 62.808594 137.671875 63.066406 133.351562 C 63.324219 129.03125 63.703125 124.769531 64.199219 120.566406 C 64.214844 120.417969 64.347656 120.308594 64.496094 120.324219 L 64.507812 120.324219 C 69.0625 120.964844 73.644531 121.300781 78.082031 121.335938 C 82.523438 121.367188 86.824219 121.097656 90.800781 120.527344 C 90.949219 120.503906 91.082031 120.609375 91.101562 120.757812 L 91.101562 120.765625 C 92.53125 136.203125 92.53125 143.914062 92.53125 143.9375 C 92.53125 144.085938 92.410156 144.207031 92.261719 144.210938 C 92.113281 144.214844 91.988281 144.097656 91.988281 143.949219 C 91.988281 143.925781 91.988281 136.339844 90.585938 121.101562 C 86.664062 121.652344 82.433594 121.910156 78.066406 121.875 C 73.691406 121.839844 69.179688 121.515625 64.703125 120.898438 C 64.222656 124.992188 63.859375 129.148438 63.609375 133.371094 C 63.351562 137.679688 63.210938 142.054688 63.191406 146.488281 " fill-opacity="1" fill-rule="nonzero"/><path fill="rgb(98.81897%, 79.998779%, 36.859131%)" d="M 64.03125 124.945312 C 63.65625 124.882812 63.582031 125.421875 63.90625 125.476562 C 64.261719 125.546875 64.621094 125.625 64.972656 125.6875 C 65.339844 125.75 65.425781 125.210938 65.085938 125.15625 C 64.738281 125.09375 64.382812 125.015625 64.03125 124.945312 Z M 91.273438 125.574219 C 91.609375 125.519531 91.558594 124.980469 91.183594 125.042969 L 90.359375 125.199219 C 90.015625 125.257812 90.082031 125.792969 90.445312 125.734375 Z M 87.746094 126.175781 C 88.117188 126.117188 88.023438 125.585938 87.679688 125.640625 L 86.605469 125.789062 C 86.226562 125.851562 86.332031 126.382812 86.664062 126.328125 Z M 83.945312 126.625 C 84.300781 126.566406 84.28125 126.085938 83.910156 126.085938 L 82.832031 126.175781 C 82.523438 126.175781 82.449219 126.714844 82.859375 126.714844 Z M 80.132812 126.867188 C 80.464844 126.867188 80.507812 126.324219 80.125 126.324219 C 79.765625 126.335938 79.40625 126.347656 79.042969 126.351562 C 78.699219 126.351562 78.671875 126.894531 79.042969 126.894531 C 79.40625 126.886719 79.769531 126.875 80.132812 126.867188 Z M 76.316406 126.890625 C 76.691406 126.890625 76.683594 126.347656 76.339844 126.347656 C 75.980469 126.34375 75.621094 126.332031 75.261719 126.316406 C 74.878906 126.316406 74.894531 126.859375 75.226562 126.859375 C 75.589844 126.875 75.953125 126.882812 76.316406 126.890625 Z M 72.511719 126.703125 C 72.917969 126.703125 72.871094 126.160156 72.5625 126.160156 C 72.207031 126.132812 71.847656 126.101562 71.488281 126.070312 C 71.183594 126.019531 71.027344 126.539062 71.425781 126.609375 C 71.785156 126.640625 72.148438 126.671875 72.511719 126.703125 Z M 68.722656 126.300781 C 69.054688 126.355469 69.183594 125.824219 68.808594 125.761719 C 68.453125 125.714844 68.097656 125.664062 67.742188 125.609375 C 67.402344 125.554688 67.285156 126.085938 67.648438 126.148438 C 68.007812 126.199219 68.367188 126.25 68.722656 126.300781 " fill-opacity="1" fill-rule="nonzero"/><path fill="rgb(98.429871%, 79.60968%, 83.529663%)" d="M 55.210938 48.554688 C 55.207031 48.40625 55.324219 48.28125 55.476562 48.277344 C 55.625 48.273438 55.75 48.390625 55.753906 48.539062 C 55.769531 49.273438 55.691406 49.941406 55.523438 50.535156 C 55.351562 51.140625 55.082031 51.675781 54.71875 52.140625 C 54.628906 52.257812 54.457031 52.28125 54.339844 52.1875 C 54.222656 52.097656 54.203125 51.925781 54.292969 51.808594 C 54.613281 51.402344 54.847656 50.925781 55 50.390625 C 55.15625 49.84375 55.226562 49.230469 55.210938 48.554688 " fill-opacity="1" fill-rule="nonzero"/><path fill="rgb(98.429871%, 79.60968%, 83.529663%)" d="M 53.410156 53.246094 C 53.492188 53.121094 53.664062 53.089844 53.785156 53.175781 C 53.910156 53.261719 53.9375 53.429688 53.855469 53.550781 L 53.167969 54.542969 C 53.085938 54.664062 52.914062 54.695312 52.792969 54.609375 C 52.667969 54.527344 52.636719 54.359375 52.722656 54.234375 L 53.410156 53.246094 " fill-opacity="1" fill-rule="nonzero"/><path fill="rgb(98.429871%, 79.60968%, 83.529663%)" d="M 62.984375 43.679688 C 62.910156 43.550781 62.953125 43.386719 63.082031 43.3125 C 63.210938 43.238281 63.375 43.285156 63.453125 43.410156 C 63.949219 44.277344 64.53125 44.945312 65.1875 45.40625 L 65.203125 45.417969 C 65.847656 45.871094 66.574219 46.128906 67.375 46.195312 C 67.523438 46.210938 67.636719 46.339844 67.625 46.488281 C 67.613281 46.636719 67.480469 46.746094 67.332031 46.738281 C 66.433594 46.660156 65.617188 46.367188 64.894531 45.859375 L 64.875 45.851562 C 64.15625 45.339844 63.523438 44.617188 62.984375 43.679688 " fill-opacity="1" fill-rule="nonzero"/><path fill="rgb(98.429871%, 79.60968%, 83.529663%)" d="M 68.953125 46.582031 C 68.804688 46.582031 68.6875 46.457031 68.6875 46.308594 C 68.691406 46.160156 68.816406 46.042969 68.964844 46.042969 C 69.167969 46.046875 69.351562 46.035156 69.511719 46.007812 L 69.519531 46.007812 C 69.664062 45.984375 69.785156 45.945312 69.878906 45.898438 C 70.011719 45.828125 70.175781 45.882812 70.242188 46.011719 C 70.3125 46.144531 70.257812 46.308594 70.125 46.375 C 69.980469 46.453125 69.808594 46.503906 69.613281 46.539062 L 69.601562 46.542969 C 69.414062 46.574219 69.195312 46.585938 68.953125 46.582031 " fill-opacity="1" fill-rule="nonzero"/><path fill="rgb(98.429871%, 79.60968%, 83.529663%)" d="M 49.9375 82.664062 C 49.972656 82.519531 50.121094 82.433594 50.265625 82.472656 C 50.410156 82.507812 50.496094 82.65625 50.460938 82.800781 C 50.25 83.589844 50.222656 84.238281 50.367188 84.742188 C 50.507812 85.214844 50.808594 85.566406 51.277344 85.789062 C 51.414062 85.855469 51.46875 86.015625 51.40625 86.148438 C 51.339844 86.285156 51.179688 86.339844 51.042969 86.277344 C 50.429688 85.980469 50.03125 85.519531 49.847656 84.890625 C 49.671875 84.292969 49.703125 83.550781 49.9375 82.664062 " fill-opacity="1" fill-rule="nonzero"/><path fill="rgb(98.429871%, 79.60968%, 83.529663%)" d="M 50.988281 80.898438 C 50.949219 81.046875 50.796875 81.128906 50.652344 81.089844 C 50.511719 81.046875 50.425781 80.898438 50.46875 80.753906 L 50.660156 80.070312 C 50.703125 79.925781 50.851562 79.839844 50.996094 79.882812 C 51.140625 79.921875 51.222656 80.070312 51.183594 80.214844 L 50.988281 80.898438 " fill-opacity="1" fill-rule="nonzero"/><path fill="rgb(96.078491%, 46.269226%, 57.249451%)" d="M 100.523438 143.085938 C 99.253906 137.113281 96.316406 131.824219 95.890625 127.578125 C 95.789062 126.582031 95.859375 125.714844 96.097656 124.980469 C 97.691406 122.355469 100.789062 112.132812 101.9375 111.828125 C 105.128906 120.140625 107.746094 122.679688 109.789062 119.445312 C 110.042969 118.597656 110.167969 118.175781 110.167969 118.175781 C 110.734375 119.796875 110.886719 122 110.628906 124.777344 C 110.128906 130.167969 109.449219 133.703125 110.878906 138.84375 C 106.996094 139.628906 103.546875 141.042969 100.523438 143.085938 " fill-opacity="1" fill-rule="evenodd"/><path fill="rgb(97.648621%, 68.238831%, 43.528748%)" d="M 100.460938 142.789062 C 99.929688 140.410156 99.144531 138.140625 98.371094 136.003906 C 98.265625 135.707031 98.160156 135.414062 98.050781 135.125 C 97.945312 134.832031 97.839844 134.539062 97.734375 134.25 C 97.625 133.957031 97.519531 133.660156 97.417969 133.367188 C 96.675781 131.273438 96.066406 129.335938 95.890625 127.578125 C 95.859375 127.28125 95.847656 126.996094 95.847656 126.722656 C 95.847656 126.078125 95.929688 125.496094 96.097656 124.980469 C 97.691406 122.355469 100.789062 112.132812 101.9375 111.828125 C 104.234375 117.8125 106.238281 120.804688 107.9375 120.804688 C 108.597656 120.804688 109.214844 120.347656 109.789062 119.445312 C 110.042969 118.597656 110.167969 118.175781 110.167969 118.175781 C 110.554688 119.289062 110.75 120.671875 110.75 122.328125 C 110.75 123.085938 110.710938 123.902344 110.628906 124.777344 C 110.351562 127.757812 110.019531 130.171875 110.023438 132.601562 C 110.023438 134.429688 110.210938 136.273438 110.753906 138.371094 C 109.230469 138.4375 107.644531 138.769531 106.039062 139.394531 C 104.175781 140.121094 102.289062 141.238281 100.460938 142.789062 " fill-opacity="1" fill-rule="nonzero"/><g clip-path="url(#id5)"><path fill="rgb(96.078491%, 46.269226%, 57.249451%)" d="M 131.945312 187.5 C 123.265625 157.605469 115.890625 139.761719 111.953125 138.644531 C 108.371094 138.46875 104.328125 139.820312 100.523438 143.085938 C 99.058594 145.667969 97.820312 161.695312 101.605469 187.5 C 121.832031 187.5 131.945312 187.5 131.945312 187.5 " fill-opacity="1" fill-rule="evenodd"/></g><g clip-path="url(#id6)"><path fill="rgb(12.939453%, 14.118958%, 35.289001%)" d="M 126.429688 168.703125 C 126.476562 168.84375 126.398438 169 126.257812 169.046875 C 126.113281 169.097656 125.960938 169.023438 125.914062 168.882812 C 122.851562 159.617188 120.054688 152.300781 117.648438 147.195312 C 115.289062 142.195312 113.332031 139.347656 111.898438 138.914062 C 110.097656 138.828125 108.175781 139.140625 106.222656 139.898438 C 104.394531 140.609375 102.539062 141.714844 100.738281 143.257812 C 99.914062 144.789062 99.171875 150.734375 99.410156 160.429688 C 99.582031 167.535156 100.285156 176.632812 101.871094 187.453125 L 101.875 187.5 L 101.328125 187.5 C 99.742188 176.675781 99.039062 167.570312 98.867188 160.457031 C 98.628906 150.585938 99.417969 144.507812 100.285156 142.964844 L 100.289062 142.957031 L 100.347656 142.882812 C 102.214844 141.28125 104.136719 140.132812 106.039062 139.394531 C 108.070312 138.605469 110.078125 138.285156 111.960938 138.375 L 112.03125 138.382812 C 113.625 138.835938 115.699219 141.785156 118.140625 146.957031 C 120.558594 152.082031 123.359375 159.417969 126.429688 168.703125 " fill-opacity="1" fill-rule="nonzero"/></g><path fill="rgb(34.899902%, 29.798889%, 66.268921%)" d="M 112.355469 142.945312 C 112.292969 142.808594 112.355469 142.648438 112.496094 142.585938 C 112.632812 142.523438 112.792969 142.582031 112.851562 142.714844 L 113.597656 144.417969 C 113.65625 144.554688 113.59375 144.714844 113.457031 144.777344 C 113.320312 144.839844 113.160156 144.78125 113.101562 144.644531 Z M 101.96875 146.261719 C 101.945312 146.113281 102.042969 145.972656 102.191406 145.941406 C 102.339844 145.914062 102.480469 146.007812 102.503906 146.15625 L 102.773438 147.707031 C 102.796875 147.851562 102.699219 147.996094 102.550781 148.023438 C 102.402344 148.050781 102.261719 147.953125 102.238281 147.808594 Z M 105.230469 145.339844 C 105.195312 145.195312 105.28125 145.046875 105.425781 145.007812 C 105.574219 144.96875 105.71875 145.054688 105.753906 145.195312 L 106.082031 146.464844 C 106.117188 146.609375 106.027344 146.757812 105.882812 146.796875 C 105.738281 146.839844 105.589844 146.753906 105.554688 146.609375 Z M 108.894531 144.09375 C 108.832031 143.960938 108.890625 143.796875 109.023438 143.730469 C 109.160156 143.664062 109.320312 143.71875 109.382812 143.851562 L 110.039062 145.222656 C 110.101562 145.355469 110.042969 145.519531 109.90625 145.585938 C 109.773438 145.652344 109.613281 145.597656 109.546875 145.464844 L 108.894531 144.09375 " fill-opacity="1" fill-rule="nonzero"/><path fill="rgb(96.078491%, 46.269226%, 57.249451%)" d="M 76.460938 145.347656 C 74.347656 152.351562 75.722656 157.277344 80.582031 160.128906 C 86.238281 159.484375 86.652344 155.109375 88.445312 155.496094 C 93.347656 157.046875 96.871094 160.476562 98.242188 160.332031 C 99.714844 160.25 101.539062 152.378906 101.351562 149.664062 C 100.75 147.011719 98.085938 144.320312 93.351562 141.589844 C 91.945312 140.890625 85.8125 141.785156 76.460938 145.347656 " fill-opacity="1" fill-rule="evenodd"/><path fill="rgb(97.648621%, 68.238831%, 43.528748%)" d="M 98.152344 160.332031 C 97.140625 160.332031 95.089844 158.660156 92.265625 157.144531 C 92.105469 157.058594 91.9375 156.96875 91.773438 156.886719 C 90.753906 156.363281 89.640625 155.875 88.445312 155.496094 C 88.367188 155.476562 88.296875 155.472656 88.226562 155.472656 C 86.609375 155.472656 86 159.511719 80.582031 160.128906 C 77.195312 158.140625 75.5 155.144531 75.5 151.136719 C 75.503906 149.398438 75.820312 147.46875 76.460938 145.347656 C 83.894531 142.515625 89.292969 141.367188 91.902344 141.367188 C 92.574219 141.367188 93.0625 141.445312 93.351562 141.589844 C 98.085938 144.320312 100.75 147.011719 101.351562 149.664062 C 101.359375 149.792969 101.363281 149.9375 101.363281 150.085938 C 101.363281 152.316406 100.433594 156.769531 99.382812 159 C 99.207031 159.363281 99.03125 159.671875 98.855469 159.898438 C 98.648438 160.164062 98.441406 160.320312 98.242188 160.332031 C 98.214844 160.332031 98.183594 160.332031 98.152344 160.332031 " fill-opacity="1" fill-rule="nonzero"/><path fill="rgb(96.078491%, 46.269226%, 57.249451%)" d="M 47.222656 180.464844 C 34.523438 171.5 31.566406 162.316406 38.351562 152.914062 C 64.765625 142.359375 79.5 140.703125 78.683594 143.976562 C 76.773438 150.101562 77.707031 155.6875 80.582031 160.128906 C 80.851562 162.671875 69.429688 169.25 47.222656 180.464844 " fill-opacity="1" fill-rule="evenodd"/><path fill="rgb(34.899902%, 29.798889%, 66.268921%)" d="M 71.230469 146.679688 C 71.082031 146.707031 70.945312 146.605469 70.921875 146.457031 C 70.902344 146.3125 71.003906 146.171875 71.152344 146.148438 C 71.710938 146.050781 72.238281 145.972656 72.734375 145.90625 C 73.230469 145.84375 73.683594 145.792969 74.089844 145.761719 C 74.238281 145.753906 74.367188 145.863281 74.375 146.011719 C 74.378906 146.164062 74.265625 146.292969 74.117188 146.304688 C 73.707031 146.335938 73.261719 146.382812 72.789062 146.441406 C 72.3125 146.503906 71.792969 146.585938 71.230469 146.679688 Z M 73.511719 152.953125 C 73.65625 152.929688 73.792969 153.03125 73.8125 153.179688 C 73.832031 153.324219 73.730469 153.464844 73.582031 153.488281 L 70.972656 153.894531 C 70.828125 153.914062 70.691406 153.816406 70.671875 153.667969 C 70.652344 153.519531 70.757812 153.382812 70.90625 153.359375 Z M 73.59375 149.675781 C 73.742188 149.65625 73.878906 149.757812 73.894531 149.90625 C 73.910156 150.054688 73.804688 150.191406 73.65625 150.210938 L 70.976562 150.59375 C 70.828125 150.613281 70.691406 150.511719 70.675781 150.363281 C 70.65625 150.214844 70.765625 150.078125 70.914062 150.058594 Z M 74.199219 156.566406 C 74.339844 156.523438 74.492188 156.601562 74.535156 156.746094 C 74.578125 156.886719 74.492188 157.039062 74.347656 157.085938 L 72.742188 157.578125 C 72.261719 157.722656 71.828125 157.851562 71.445312 157.960938 C 71.300781 158.003906 71.152344 157.921875 71.113281 157.78125 C 71.074219 157.636719 71.164062 157.484375 71.308594 157.445312 C 71.6875 157.335938 72.121094 157.207031 72.597656 157.0625 Z M 75.890625 160.046875 C 76.023438 159.972656 76.1875 160.015625 76.257812 160.144531 C 76.332031 160.273438 76.28125 160.4375 76.152344 160.511719 C 75.683594 160.785156 75.207031 161.03125 74.722656 161.253906 C 74.234375 161.480469 73.742188 161.683594 73.25 161.855469 C 73.105469 161.902344 72.953125 161.832031 72.90625 161.691406 C 72.859375 161.550781 72.9375 161.394531 73.082031 161.34375 C 73.566406 161.175781 74.039062 160.984375 74.503906 160.765625 C 74.972656 160.550781 75.433594 160.308594 75.890625 160.046875 " fill-opacity="1" fill-rule="nonzero"/><path fill="rgb(12.939453%, 14.118958%, 35.289001%)" d="M 92.640625 154.632812 C 92.507812 154.574219 92.453125 154.410156 92.515625 154.277344 C 92.582031 154.140625 92.746094 154.082031 92.878906 154.140625 C 94.625 154.949219 96.050781 155.753906 97.152344 156.558594 C 98.273438 157.378906 99.070312 158.199219 99.539062 159.023438 C 99.613281 159.152344 99.566406 159.316406 99.433594 159.390625 C 99.304688 159.46875 99.140625 159.425781 99.066406 159.296875 C 98.632812 158.539062 97.886719 157.769531 96.828125 156.996094 C 95.75 156.214844 94.355469 155.425781 92.640625 154.632812 " fill-opacity="1" fill-rule="nonzero"/><path fill="rgb(12.939453%, 14.118958%, 35.289001%)" d="M 94.585938 151.191406 C 94.449219 151.121094 94.398438 150.953125 94.46875 150.8125 C 94.542969 150.675781 94.714844 150.621094 94.851562 150.6875 C 95.953125 151.246094 96.996094 151.917969 97.972656 152.707031 C 98.953125 153.492188 99.871094 154.394531 100.722656 155.40625 C 100.824219 155.523438 100.808594 155.703125 100.6875 155.804688 C 100.566406 155.90625 100.386719 155.890625 100.289062 155.773438 C 99.457031 154.785156 98.566406 153.910156 97.617188 153.148438 C 96.667969 152.386719 95.65625 151.734375 94.585938 151.191406 " fill-opacity="1" fill-rule="nonzero"/><path fill="rgb(12.939453%, 14.118958%, 35.289001%)" d="M 95.582031 147.867188 C 95.453125 147.792969 95.414062 147.628906 95.492188 147.496094 C 95.570312 147.371094 95.738281 147.324219 95.867188 147.398438 C 97.171875 148.164062 98.28125 148.957031 99.195312 149.777344 C 100.117188 150.605469 100.847656 151.464844 101.378906 152.359375 C 101.457031 152.488281 101.410156 152.652344 101.285156 152.730469 C 101.152344 152.8125 100.988281 152.769531 100.910156 152.644531 C 100.410156 151.796875 99.714844 150.976562 98.828125 150.183594 C 97.9375 149.382812 96.851562 148.609375 95.582031 147.867188 " fill-opacity="1" fill-rule="nonzero"/><path fill="rgb(12.939453%, 14.118958%, 35.289001%)" d="M 38.449219 153.164062 C 38.3125 153.222656 38.15625 153.152344 38.101562 153.015625 C 38.042969 152.875 38.113281 152.71875 38.25 152.664062 C 53.652344 146.507812 65.097656 143.375 71.8125 142.476562 C 73.984375 142.183594 75.671875 142.128906 76.84375 142.277344 C 78.125 142.441406 78.84375 142.867188 78.96875 143.523438 C 78.996094 143.683594 78.992188 143.859375 78.945312 144.039062 L 78.941406 144.054688 C 78.023438 146.996094 77.769531 149.8125 78.078125 152.425781 C 78.402344 155.191406 79.351562 157.734375 80.808594 159.980469 L 80.851562 160.097656 C 80.996094 161.488281 78.164062 163.851562 72.46875 167.273438 C 66.871094 170.640625 58.753906 174.980469 47.644531 180.597656 C 47.410156 180.710938 47.273438 180.804688 47.097656 180.5625 C 47.011719 180.445312 46.960938 180.28125 46.960938 180.28125 C 58.054688 174.675781 66.597656 170.175781 72.1875 166.8125 C 77.597656 163.5625 80.339844 161.382812 80.316406 160.214844 C 78.835938 157.914062 77.871094 155.308594 77.539062 152.488281 C 77.222656 149.800781 77.484375 146.914062 78.421875 143.902344 C 78.445312 143.800781 78.449219 143.707031 78.433594 143.625 C 78.355469 143.21875 77.796875 142.945312 76.777344 142.8125 C 75.648438 142.667969 74.007812 142.726562 71.886719 143.011719 C 65.207031 143.90625 53.808594 147.03125 38.449219 153.164062 " fill-opacity="1" fill-rule="nonzero"/><g clip-path="url(#id7)"><path fill="rgb(98.429871%, 79.60968%, 83.529663%)" d="M 100.457031 0.515625 L 169.644531 19.597656 C 171.222656 20.03125 172.15625 21.675781 171.71875 23.25 L 154.28125 86.199219 C 153.84375 87.773438 152.199219 88.707031 150.617188 88.269531 L 81.429688 69.191406 C 79.851562 68.753906 78.917969 67.113281 79.355469 65.535156 L 96.792969 2.585938 C 97.230469 1.011719 98.878906 0.0820312 100.457031 0.515625 " fill-opacity="1" fill-rule="evenodd"/></g><path fill="rgb(34.899902%, 29.798889%, 66.268921%)" d="M 127.230469 81.539062 C 127.375 81.578125 127.460938 81.726562 127.421875 81.871094 C 127.382812 82.015625 127.230469 82.101562 127.089844 82.058594 L 81.359375 69.449219 C 80.496094 69.214844 79.8125 68.644531 79.402344 67.921875 C 78.992188 67.203125 78.855469 66.324219 79.09375 65.464844 L 96.53125 2.515625 C 96.769531 1.65625 97.339844 0.972656 98.0625 0.5625 C 98.785156 0.152344 99.664062 0.0195312 100.527344 0.257812 L 166.511719 18.453125 C 166.65625 18.492188 166.738281 18.640625 166.699219 18.785156 C 166.660156 18.925781 166.511719 19.011719 166.367188 18.972656 L 100.382812 0.777344 C 99.664062 0.578125 98.933594 0.691406 98.328125 1.035156 C 97.726562 1.375 97.253906 1.945312 97.054688 2.65625 L 79.617188 65.609375 C 79.417969 66.324219 79.53125 67.054688 79.871094 67.65625 C 80.214844 68.257812 80.785156 68.730469 81.503906 68.929688 L 127.230469 81.539062 " fill-opacity="1" fill-rule="nonzero"/></svg>