<svg xmlns="http://www.w3.org/2000/svg" xmlns:xlink="http://www.w3.org/1999/xlink" width="500" zoomAndPan="magnify" viewBox="0 0 375 374.999991" height="500" preserveAspectRatio="xMidYMid meet" version="1.0"><defs><clipPath id="id1"><path d="M 118 71 L 141.570312 71 L 141.570312 137.6875 L 118 137.6875 Z M 118 71 " clip-rule="nonzero"/></clipPath></defs><path fill="rgb(36.468506%, 23.919678%, 23.919678%)" d="M 58.113281 152.285156 C 56.898438 161.445312 48.425781 166.9375 44.125 174.265625 C 39.941406 182.695312 52.605469 182.695312 58.433594 183.0625 C 61.730469 183.425781 65.351562 183.425781 68.566406 183.0625 C 70.699219 182.695312 71.347656 181.960938 73.195312 182.328125 C 73.558594 182.328125 75.957031 184.527344 77.445312 184.890625 C 84.152344 186.722656 93.882812 186.359375 100.796875 186.722656 C 108.433594 187.089844 117.878906 187.457031 122.296875 181.226562 C 126.347656 175 128.363281 166.574219 125.027344 158.878906 " fill-opacity="1" fill-rule="nonzero"/><path fill="rgb(68.629456%, 88.62915%, 74.899292%)" d="M 45.769531 102.414062 C 45.53125 104.589844 46.496094 105.074219 47.703125 106.765625 C 48.910156 108.699219 49.148438 109.183594 49.148438 111.84375 C 49.390625 116.675781 49.871094 123.203125 53.972656 126.828125 C 64.105469 135.769531 75.445312 120.785156 73.273438 110.875 " fill-opacity="1" fill-rule="nonzero"/><path fill="rgb(36.468506%, 23.919678%, 23.919678%)" d="M 128.679688 26.707031 C 125.964844 22.898438 124.335938 20.722656 123.792969 16.011719 C 123.25 12.023438 120.898438 8.757812 117.460938 6.582031 C 115.507812 5.464844 111.730469 4.894531 109.1875 5.851562 C 106.691406 2.980469 102.546875 1.042969 100.996094 0.785156 C 96.832031 0.0585938 93.035156 0.601562 89.777344 3.320312 C 86.15625 6.039062 82.71875 8.578125 78.378906 10.027344 C 73.492188 11.476562 70.960938 11.660156 67.882812 16.191406 C 66.074219 19.09375 64.988281 21.992188 65.351562 25.4375 C 65.710938 28.699219 68.789062 31.417969 67.339844 34.863281 C 65.527344 39.398438 68.03125 43.898438 72.066406 46.179688 C 76.75 48.820312 114.566406 58.59375 124.878906 47.191406 C 125.96875 45.988281 125.421875 45.558594 126.691406 44.652344 C 127.59375 43.925781 128.496094 43.5625 129.402344 42.65625 C 130.667969 41.207031 131.214844 39.03125 131.394531 37.21875 C 131.753906 33.59375 130.851562 29.605469 128.679688 26.707031 " fill-opacity="1" fill-rule="nonzero"/><path fill="rgb(100%, 99.21875%, 94.119263%)" d="M 60.285156 149.867188 C 55.933594 138.988281 74.9375 117.40625 76.988281 95.40625 C 79.039062 73.40625 76.710938 62.015625 99.882812 62.378906 C 109.382812 62.527344 117 64.972656 126.535156 73.246094 C 139.804688 84.761719 136.40625 99.902344 133.878906 123.601562 C 131.910156 142.042969 122.890625 164.53125 109.902344 168.300781 C 90.878906 173.824219 64.632812 160.742188 60.285156 149.867188 " fill-opacity="1" fill-rule="nonzero"/><path fill="rgb(36.468506%, 23.919678%, 23.919678%)" d="M 86.289062 16.261719 C 86.367188 16.261719 86.449219 16.261719 86.527344 16.261719 C 86.996094 16.261719 86.996094 15.539062 86.527344 15.539062 C 86.449219 15.539062 86.367188 15.539062 86.289062 15.539062 C 85.820312 15.539062 85.820312 16.261719 86.289062 16.261719 " fill-opacity="1" fill-rule="nonzero"/><g clip-path="url(#id1)"><path fill="rgb(68.629456%, 88.62915%, 74.899292%)" d="M 120.496094 118.828125 C 123.253906 126.21875 132.773438 140.65625 136.425781 136.699219 C 143.933594 128.566406 142.503906 87.542969 136.757812 78.179688 C 133.59375 73.023438 123.839844 66.5 119.863281 76.054688 C 117.070312 82.761719 117.742188 111.4375 120.496094 118.828125 " fill-opacity="1" fill-rule="nonzero"/></g><path fill="rgb(68.629456%, 88.62915%, 74.899292%)" d="M 130.742188 71.820312 C 127.761719 69.234375 121.644531 67.636719 121.269531 66 C 120.898438 64.363281 125.679688 62.542969 126.535156 61.402344 C 123.460938 59.769531 111.851562 55.84375 96.652344 55.664062 C 81.453125 55.480469 77.65625 63.457031 73.855469 66.902344 C 75.503906 67.652344 77.785156 67.925781 78.714844 69.679688 C 79.644531 71.433594 74.234375 82.890625 73.203125 93.976562 C 71.152344 115.976562 55.0625 138.648438 52.679688 144.550781 C 49.800781 151.679688 53.476562 153.527344 53.890625 157.964844 C 54.246094 161.773438 53.777344 164.742188 55.222656 164.851562 C 58.355469 165.09375 63.371094 148.566406 65.476562 145.296875 C 70.636719 137.289062 75.984375 129.246094 80.507812 120.859375 C 85.195312 112.175781 89.328125 102.171875 88.878906 92.097656 C 88.609375 86.007812 86.765625 79.925781 85.933594 73.832031 C 85.914062 73.308594 85.828125 69.5625 87.304688 68.144531 C 88.894531 66.617188 99.003906 63.273438 104.40625 65.070312 C 109.804688 66.863281 108.039062 78.5625 108.039062 78.5625 C 106.480469 82.652344 106.34375 87.449219 107.320312 91.640625 C 108.519531 96.800781 111.1875 101.398438 112.839844 106.398438 C 114.566406 111.617188 115.371094 117.238281 115.453125 122.726562 C 115.605469 132.558594 113.765625 142.980469 108.019531 151.132812 C 103.378906 157.71875 88.476562 169.683594 87.769531 175.488281 C 87.558594 177.214844 91.277344 174.707031 95.503906 175.726562 C 112.515625 179.835938 126.773438 170.925781 129.820312 167.507812 C 134.15625 162.644531 131.90625 142.042969 133.875 123.601562 C 136.40625 99.90625 144.007812 83.335938 130.742188 71.820312 " fill-opacity="1" fill-rule="nonzero"/><path fill="rgb(83.529663%, 30.979919%, 28.62854%)" d="M 90.378906 67.257812 C 90.148438 68.761719 92.855469 71.292969 96.15625 71.398438 C 100.101562 71.519531 104.808594 68.925781 105.050781 67.160156 C 105.496094 63.910156 106.042969 58.914062 105.816406 54.675781 C 105.605469 50.722656 101.570312 47.851562 97.820312 48.273438 C 93.613281 48.742188 91.820312 52.5 91.515625 56.289062 C 91.453125 57.058594 90.886719 63.964844 90.378906 67.257812 " fill-opacity="1" fill-rule="nonzero"/><path fill="rgb(89.019775%, 43.919373%, 33.329773%)" d="M 119.5625 48.015625 C 117.050781 55.660156 111.769531 63.792969 97.683594 64.910156 C 83.78125 66.011719 79.378906 61.328125 76.984375 53.265625 C 76.296875 50.960938 75.777344 48.378906 75.246094 45.570312 C 75.136719 44.992188 75.03125 44.425781 74.9375 43.882812 C 72.636719 31.121094 73.4375 27.921875 76.703125 22.933594 C 81.449219 15.683594 102.257812 12.535156 112.839844 23.136719 C 119.417969 29.734375 122.074219 40.367188 119.5625 48.015625 " fill-opacity="1" fill-rule="nonzero"/><path fill="rgb(36.468506%, 23.919678%, 23.919678%)" d="M 96.503906 41.335938 C 96.085938 40.0625 96.4375 38.0625 97.820312 38.28125 C 99.324219 38.519531 99.25 41.273438 98.570312 42.003906 C 97.785156 42.847656 96.847656 42.390625 96.503906 41.335938 " fill-opacity="1" fill-rule="nonzero"/><path fill="rgb(36.468506%, 23.919678%, 23.919678%)" d="M 99.125 35.625 C 98.371094 34.839844 96.851562 34.695312 96.027344 35.433594 C 95.382812 36.007812 94.515625 34.988281 95.160156 34.414062 C 96.546875 33.175781 98.886719 33.457031 100.140625 34.757812 C 100.742188 35.378906 99.722656 36.242188 99.125 35.625 " fill-opacity="1" fill-rule="nonzero"/><path fill="rgb(36.468506%, 23.919678%, 23.919678%)" d="M 81.128906 44.117188 C 80.710938 42.84375 81.0625 40.84375 82.449219 41.0625 C 83.949219 41.300781 83.875 44.054688 83.195312 44.785156 C 82.410156 45.628906 81.472656 45.171875 81.128906 44.117188 " fill-opacity="1" fill-rule="nonzero"/><path fill="rgb(36.468506%, 23.919678%, 23.919678%)" d="M 79.335938 37.738281 C 80.140625 36.167969 82.113281 35.570312 83.566406 36.464844 C 84.25 36.882812 83.589844 37.960938 82.910156 37.542969 C 82.015625 36.996094 80.78125 37.632812 80.324219 38.519531 C 79.949219 39.253906 78.960938 38.464844 79.335938 37.738281 " fill-opacity="1" fill-rule="nonzero"/><path fill="rgb(83.529663%, 30.979919%, 28.62854%)" d="M 103.539062 41.285156 C 109.71875 40.167969 111.449219 49.769531 105.269531 50.886719 C 99.09375 52.003906 97.363281 42.402344 103.539062 41.285156 " fill-opacity="1" fill-rule="nonzero"/><path fill="rgb(83.529663%, 30.979919%, 28.62854%)" d="M 77.695312 53.191406 C 77.449219 53.238281 77.210938 53.257812 76.984375 53.265625 C 76.296875 50.957031 75.777344 48.378906 75.246094 45.570312 C 75.136719 44.992188 75.03125 44.425781 74.9375 43.882812 C 75.246094 43.757812 75.59375 43.65625 75.964844 43.59375 C 82.144531 42.476562 83.875 52.074219 77.695312 53.191406 " fill-opacity="1" fill-rule="nonzero"/><path fill="rgb(89.019775%, 43.919373%, 33.329773%)" d="M 117.578125 37.402344 C 118.917969 32.453125 125.164062 30.617188 126.386719 36.75 C 127.363281 41.511719 123.386719 45.527344 118.582031 45.574219 " fill-opacity="1" fill-rule="nonzero"/><path fill="rgb(83.529663%, 30.979919%, 28.62854%)" d="M 123.832031 38.117188 C 123.628906 37.25 122.960938 36.617188 122.046875 36.613281 C 121.261719 36.613281 120.527344 37.394531 120.613281 38.179688 C 120.6875 38.890625 121.136719 39.558594 121.421875 40.199219 C 121.542969 40.476562 121.710938 40.847656 121.632812 41.15625 C 121.546875 41.523438 120.523438 41.3125 120.316406 41.277344 C 119.859375 41.207031 119.664062 41.90625 120.125 41.980469 C 120.773438 42.082031 121.613281 42.222656 122.132812 41.707031 C 122.546875 41.292969 122.351562 40.605469 122.171875 40.136719 C 121.929688 39.496094 121.546875 38.910156 121.359375 38.25 C 121.230469 37.808594 121.613281 37.386719 122.046875 37.339844 C 122.636719 37.277344 123.015625 37.804688 123.132812 38.3125 C 123.238281 38.769531 123.933594 38.574219 123.832031 38.117188 " fill-opacity="1" fill-rule="nonzero"/><path fill="rgb(83.529663%, 30.979919%, 28.62854%)" d="M 88.652344 45.375 C 88.222656 45.886719 87.722656 46.332031 87.277344 46.832031 C 87.082031 47.050781 86.878906 47.289062 86.757812 47.558594 C 86.699219 47.695312 86.757812 47.71875 86.707031 47.652344 C 86.800781 47.78125 87.03125 47.824219 87.171875 47.871094 C 87.992188 48.136719 87.53125 49.394531 86.710938 49.128906 C 85.738281 48.808594 85.09375 48.023438 85.550781 46.992188 C 85.976562 46.03125 86.894531 45.394531 87.554688 44.609375 C 88.105469 43.953125 89.207031 44.710938 88.652344 45.375 " fill-opacity="1" fill-rule="nonzero"/><path fill="rgb(83.529663%, 30.979919%, 28.62854%)" d="M 87.132812 53.640625 C 88.890625 53.695312 90.703125 53.148438 92.199219 52.230469 C 92.597656 51.988281 92.234375 51.359375 91.835938 51.605469 C 90.441406 52.457031 88.769531 52.96875 87.132812 52.914062 C 86.664062 52.898438 86.667969 53.625 87.132812 53.640625 " fill-opacity="1" fill-rule="nonzero"/><path fill="rgb(100%, 99.21875%, 94.119263%)" d="M 44.230469 70.980469 C 46.621094 70.53125 52.074219 76.488281 53.875 75.402344 C 59.636719 70.3125 65.898438 65.707031 66.9375 66 C 68.914062 66.558594 87.71875 98.269531 87.769531 100.21875 C 87.820312 102.167969 65.402344 117.265625 62.648438 118.324219 C 59.890625 119.382812 43.972656 92.121094 42.039062 88.996094 C 40.109375 85.871094 41.84375 71.429688 44.230469 70.980469 " fill-opacity="1" fill-rule="nonzero"/><path fill="rgb(83.529663%, 30.979919%, 28.62854%)" d="M 44.550781 88.59375 C 45.992188 87.441406 68.839844 69.101562 70.816406 69.660156 C 72.796875 70.21875 91.597656 101.933594 91.648438 103.882812 C 91.699219 105.828125 70.699219 123.105469 62.433594 121.46875 C 54.164062 119.835938 40.824219 93.707031 39.460938 89.929688 C 37.503906 84.496094 41.769531 72.28125 42.40625 71.644531 C 43.042969 71.003906 43.632812 71.398438 43.632812 71.398438 C 43.632812 71.398438 42.222656 76.585938 41.996094 79.042969 C 41.59375 83.398438 41.71875 87.929688 41.816406 88.535156 C 42.003906 89.738281 44.28125 88.804688 44.550781 88.59375 " fill-opacity="1" fill-rule="nonzero"/><path fill="rgb(100%, 99.21875%, 94.119263%)" d="M 53.027344 104.484375 C 56.277344 109.328125 60.679688 113.332031 63.28125 118.609375 C 63.484375 119.03125 64.113281 118.660156 63.90625 118.242188 C 61.304688 112.960938 56.902344 108.960938 53.652344 104.117188 C 53.394531 103.730469 52.765625 104.09375 53.027344 104.484375 " fill-opacity="1" fill-rule="nonzero"/><path fill="rgb(100%, 99.21875%, 94.119263%)" d="M 45.367188 90.832031 C 46.652344 93.03125 47.890625 95.257812 49.125 97.480469 C 49.351562 97.890625 49.976562 97.523438 49.75 97.113281 C 48.515625 94.890625 47.277344 92.664062 45.992188 90.46875 C 45.757812 90.066406 45.132812 90.429688 45.367188 90.832031 " fill-opacity="1" fill-rule="nonzero"/><path fill="rgb(89.019775%, 43.919373%, 33.329773%)" d="M 41.070312 95.917969 C 40.472656 96.277344 40.351562 98.695312 41.015625 99.636719 C 41.71875 100.5625 43.015625 100.628906 44.070312 100.742188 C 46.367188 100.988281 49.359375 100.171875 48.84375 98.875 C 48.203125 97.261719 41.667969 95.554688 41.070312 95.917969 " fill-opacity="1" fill-rule="nonzero"/><path fill="rgb(89.019775%, 43.919373%, 33.329773%)" d="M 42.917969 100.230469 C 42.4375 100.734375 42.957031 103.085938 43.84375 103.8125 C 44.765625 104.515625 46.035156 104.242188 47.082031 104.074219 C 49.363281 103.707031 52.035156 102.140625 51.199219 101.03125 C 50.152344 99.648438 43.398438 99.726562 42.917969 100.230469 " fill-opacity="1" fill-rule="nonzero"/><path fill="rgb(89.019775%, 43.919373%, 33.329773%)" d="M 40.773438 96.464844 C 41.316406 96.757812 41.96875 96.921875 42.507812 97.078125 C 43.382812 97.34375 44.855469 97.832031 45.714844 97.285156 C 46.644531 96.65625 46.074219 95.085938 45.328125 94.507812 C 44.507812 93.863281 42.953125 93.367188 42.078125 93.039062 C 41.203125 92.707031 40.875 91.824219 40.449219 91.839844 C 40.023438 91.851562 39.359375 92.789062 39.757812 95.195312 C 39.859375 95.796875 40.265625 96.1875 40.773438 96.464844 " fill-opacity="1" fill-rule="nonzero"/><path fill="rgb(83.529663%, 30.979919%, 28.62854%)" d="M 41.335938 97.167969 C 42.753906 97.691406 44.054688 97.882812 45.558594 97.730469 C 46.019531 97.6875 46.023438 96.960938 45.558594 97.007812 C 44.125 97.148438 42.878906 96.964844 41.527344 96.46875 C 41.089844 96.308594 40.902344 97.007812 41.335938 97.167969 " fill-opacity="1" fill-rule="nonzero"/><path fill="rgb(83.529663%, 30.979919%, 28.62854%)" d="M 43.652344 101.378906 C 45.199219 101.410156 46.515625 101.152344 47.917969 100.507812 C 48.339844 100.3125 47.972656 99.691406 47.550781 99.882812 C 46.273438 100.472656 45.054688 100.683594 43.652344 100.652344 C 43.1875 100.644531 43.1875 101.367188 43.652344 101.378906 " fill-opacity="1" fill-rule="nonzero"/><path fill="rgb(100%, 99.21875%, 94.119263%)" d="M 57.433594 94.328125 L 55.222656 91.457031 C 55.371094 91.347656 58.785156 88.710938 60.667969 87.671875 C 62.09375 86.800781 63.382812 85.8125 64.75 84.769531 C 65.988281 83.824219 67.269531 82.847656 68.648438 81.972656 L 70.585938 85.035156 C 69.335938 85.828125 68.175781 86.714844 66.945312 87.65625 C 65.554688 88.714844 64.117188 89.816406 62.515625 90.792969 L 62.441406 90.832031 C 61.09375 91.570312 58.371094 93.605469 57.433594 94.328125 " fill-opacity="1" fill-rule="nonzero"/><path fill="rgb(83.529663%, 30.979919%, 28.62854%)" d="M 44.1875 86.949219 C 44.796875 84.910156 45.640625 83.121094 47.171875 81.613281 C 48.8125 79.996094 50.703125 78.597656 52.527344 77.195312 C 52.890625 76.914062 52.53125 76.285156 52.160156 76.570312 C 50.136719 78.128906 48.09375 79.6875 46.269531 81.484375 C 44.828125 82.902344 44.054688 84.859375 43.492188 86.757812 C 43.355469 87.207031 44.054688 87.398438 44.1875 86.949219 " fill-opacity="1" fill-rule="nonzero"/><path fill="rgb(83.529663%, 30.979919%, 28.62854%)" d="M 63.082031 70.429688 C 64.179688 69.644531 65.332031 68.941406 66.457031 68.191406 C 66.847656 67.9375 66.484375 67.308594 66.09375 67.566406 C 64.96875 68.3125 63.816406 69.015625 62.714844 69.804688 C 62.339844 70.074219 62.703125 70.703125 63.082031 70.429688 " fill-opacity="1" fill-rule="nonzero"/><path fill="rgb(83.529663%, 30.979919%, 28.62854%)" d="M 64.226562 71.757812 C 65.34375 70.996094 66.507812 70.289062 67.726562 69.703125 C 68.144531 69.503906 67.777344 68.875 67.359375 69.078125 C 66.144531 69.664062 64.976562 70.371094 63.863281 71.132812 C 63.480469 71.394531 63.839844 72.023438 64.226562 71.757812 " fill-opacity="1" fill-rule="nonzero"/><path fill="rgb(89.019775%, 43.919373%, 33.329773%)" d="M 83.894531 90.699219 C 81.621094 90.984375 71.300781 95.578125 72.199219 97.699219 C 72.59375 98.632812 74.539062 98.324219 76.597656 97.6875 C 74.398438 99.386719 72.144531 101.328125 72.074219 102.097656 C 71.988281 103.046875 72.726562 103.324219 73.484375 103.265625 C 72.882812 103.832031 72.558594 104.398438 72.691406 104.9375 C 73.109375 106.605469 78.210938 104.742188 81.449219 103.429688 C 79.535156 104.722656 77.882812 106.132812 77.863281 106.933594 C 77.753906 110.769531 86.238281 105.015625 86.953125 105.792969 C 87.667969 106.574219 90.953125 109.050781 97.085938 108.988281 C 99.007812 108.96875 116.6875 135.027344 124.996094 138.3125 C 134.457031 142.050781 142.394531 132.871094 135.097656 121.148438 C 127.804688 109.425781 86.089844 90.425781 83.894531 90.699219 " fill-opacity="1" fill-rule="nonzero"/><path fill="rgb(83.529663%, 30.979919%, 28.62854%)" d="M 82.746094 103.21875 C 84.097656 102.140625 85.082031 100.757812 86.933594 100.632812 C 87.414062 100.601562 87.4375 99.855469 86.957031 99.886719 C 84.839844 100.027344 83.785156 101.4375 82.234375 102.671875 C 81.855469 102.972656 82.371094 103.515625 82.746094 103.21875 " fill-opacity="1" fill-rule="nonzero"/><path fill="rgb(83.529663%, 30.979919%, 28.62854%)" d="M 74.761719 102.65625 C 76.339844 101.570312 77.996094 100.613281 79.582031 99.519531 C 81.460938 98.21875 83.703125 96.296875 86.15625 96.800781 C 86.625 96.898438 86.847656 96.183594 86.375 96.085938 C 84.484375 95.699219 82.890625 96.460938 81.308594 97.453125 C 78.988281 98.910156 76.65625 100.453125 74.402344 101.996094 C 74.007812 102.265625 74.363281 102.925781 74.761719 102.65625 " fill-opacity="1" fill-rule="nonzero"/><path fill="rgb(83.529663%, 30.979919%, 28.62854%)" d="M 77.632812 97.699219 C 78.53125 96.988281 79.433594 96.285156 80.351562 95.605469 C 81.265625 94.925781 82.234375 93.863281 83.4375 93.78125 C 83.910156 93.746094 83.9375 93 83.457031 93.03125 C 82.445312 93.101562 81.65625 93.667969 80.867188 94.257812 C 79.605469 95.207031 78.359375 96.175781 77.121094 97.152344 C 76.742188 97.453125 77.257812 97.992188 77.632812 97.699219 " fill-opacity="1" fill-rule="nonzero"/><path fill="rgb(68.629456%, 88.62915%, 74.899292%)" d="M 102.519531 98.800781 C 101.53125 98.304688 104.613281 95.722656 105.699219 95.722656 C 107.691406 95.722656 108.957031 98.625 108.957031 100.074219 C 111.128906 100.074219 112.03125 98.445312 114.203125 100.257812 C 116.011719 101.527344 117.460938 103.335938 119.449219 104.609375 C 122.886719 107.144531 127.410156 108.050781 130.851562 110.589844 C 138.269531 116.210938 141.886719 125.816406 137.726562 134.335938 C 135.734375 138.507812 132.660156 142.132812 127.773438 142.132812 C 122.707031 142.132812 120.175781 137.601562 116.917969 134.699219 C 113.117188 131.4375 105.429688 127.449219 102.171875 123.640625 C 100.90625 122.011719 102.53125 118.371094 100.632812 117.117188 C 98.734375 115.859375 97.917969 118.023438 96.832031 117.476562 C 96.289062 117.296875 94.300781 113.367188 95.203125 111.375 C 96.335938 108.820312 97.375 108.964844 98.070312 109.679688 C 98.765625 110.398438 100.90625 112.371094 101.175781 112.644531 C 101.445312 112.914062 108.804688 112.101562 109.527344 109.019531 C 109.789062 107.710938 108.28125 102.875 107.359375 101.90625 C 106.441406 100.933594 103.035156 99.058594 102.519531 98.800781 " fill-opacity="1" fill-rule="nonzero"/><path fill="rgb(83.529663%, 30.979919%, 28.62854%)" d="M 119.558594 67.007812 C 117.085938 69.292969 112.402344 72.855469 113.800781 76.789062 C 114.050781 77.492188 114.589844 78.0625 115.164062 78.511719 C 116.472656 79.550781 112.886719 81.175781 112.410156 81.523438 C 110.847656 82.660156 109.132812 83.652344 108.957031 85.753906 C 108.917969 86.21875 109.640625 86.214844 109.679688 85.753906 C 109.878906 83.363281 112.890625 82.054688 114.730469 81.019531 C 115.652344 80.503906 116.78125 79.355469 115.964844 78.273438 C 115.242188 77.328125 114.398438 76.9375 114.257812 75.566406 C 114.136719 74.390625 114.847656 73.234375 115.46875 72.300781 C 116.691406 70.464844 118.464844 69.003906 120.070312 67.519531 C 120.414062 67.203125 119.898438 66.691406 119.558594 67.007812 " fill-opacity="1" fill-rule="nonzero"/><path fill="rgb(83.529663%, 30.979919%, 28.62854%)" d="M 79.75 71.507812 C 80.867188 72.9375 81.96875 74.230469 81.613281 76.152344 C 81.449219 77.03125 80.992188 77.738281 80.597656 78.5 C 80.472656 78.742188 80.378906 78.964844 80.449219 79.25 C 80.660156 80.078125 81.246094 80.425781 81.90625 80.929688 C 83.457031 82.117188 84.804688 83.628906 85.664062 85.394531 C 85.871094 85.8125 86.492188 85.445312 86.289062 85.027344 C 85.554688 83.523438 84.421875 82.113281 83.175781 81.003906 C 82.722656 80.601562 82.203125 80.257812 81.730469 79.886719 C 80.914062 79.242188 81.472656 78.628906 81.765625 77.960938 C 83.035156 75.066406 82.085938 73.328125 80.261719 70.996094 C 79.972656 70.628906 79.46875 71.144531 79.75 71.507812 " fill-opacity="1" fill-rule="nonzero"/><path fill="rgb(83.529663%, 30.979919%, 28.62854%)" d="M 112.039062 99.773438 C 114.410156 99.757812 116.527344 102.917969 118.3125 104.246094 C 120.550781 105.90625 122.96875 107.046875 125.511719 108.144531 C 130.953125 110.503906 135.179688 114.207031 137.628906 119.699219 C 137.816406 120.125 138.441406 119.753906 138.253906 119.332031 C 135.863281 113.972656 131.722656 110.128906 126.417969 107.757812 C 123.371094 106.398438 120.433594 105.128906 117.863281 102.941406 C 116.238281 101.558594 114.375 99.03125 112.039062 99.046875 C 111.570312 99.050781 111.570312 99.777344 112.039062 99.773438 " fill-opacity="1" fill-rule="nonzero"/><path fill="rgb(83.529663%, 30.979919%, 28.62854%)" d="M 119.449219 103.703125 C 119.484375 101.640625 119.292969 100.011719 118.71875 98.023438 C 117.964844 95.414062 121.441406 93.609375 123.253906 92.59375 C 123.660156 92.367188 123.296875 91.738281 122.886719 91.96875 C 121.199219 92.910156 118.847656 94.148438 118.164062 96.117188 C 117.777344 97.222656 117.953125 98.0625 118.308594 99.15625 C 118.796875 100.664062 118.75 102.140625 118.726562 103.703125 C 118.722656 104.167969 119.445312 104.167969 119.449219 103.703125 " fill-opacity="1" fill-rule="nonzero"/><path fill="rgb(36.468506%, 23.919678%, 23.919678%)" d="M 121.671875 29.285156 C 121.128906 20.398438 110.765625 6.121094 96.527344 6.121094 C 88.777344 6.121094 83.140625 8.839844 78.074219 13.375 C 74.273438 16.636719 71.441406 22.246094 71.621094 27.324219 C 71.804688 31.128906 71.804688 34.984375 75.601562 36.613281 C 77.984375 37.609375 81.324219 35.476562 81.988281 34.15625 C 82.3125 34.3125 82.691406 34.402344 83.140625 34.402344 C 86.035156 34.402344 85.492188 31.5 87.121094 30.230469 C 88.929688 29.144531 90.199219 31.136719 92.1875 30.777344 C 94.359375 30.414062 94.539062 28.417969 94.902344 26.425781 C 95.261719 24.25 94.722656 22.617188 97.070312 21.347656 C 99.078125 20.265625 100.0625 21.257812 101.707031 22.378906 C 103.636719 23.691406 105.925781 24.328125 108.101562 25.113281 C 110.089844 25.835938 111.898438 26.925781 112.804688 29.101562 C 113.890625 31.640625 112.261719 32.726562 112.261719 34.902344 C 112.261719 37.621094 114.792969 35.988281 115.699219 38.347656 C 116.421875 39.796875 113.890625 43.058594 117.328125 41.792969 C 120.765625 40.523438 121.851562 32.363281 121.671875 29.285156 " fill-opacity="1" fill-rule="nonzero"/><path fill="rgb(89.019775%, 43.919373%, 33.329773%)" d="M 88.855469 16.792969 C 87.152344 18.324219 86.359375 20.15625 85.992188 22.390625 C 85.914062 22.847656 86.613281 23.042969 86.6875 22.585938 C 87.039062 20.46875 87.75 18.757812 89.367188 17.304688 C 89.71875 16.992188 89.203125 16.480469 88.855469 16.792969 " fill-opacity="1" fill-rule="nonzero"/><path fill="rgb(89.019775%, 43.919373%, 33.329773%)" d="M 79.394531 19.164062 C 78.242188 20.847656 77.910156 22.652344 77.894531 24.664062 C 77.894531 25.132812 78.617188 25.132812 78.621094 24.664062 C 78.632812 22.773438 78.9375 21.113281 80.019531 19.527344 C 80.28125 19.140625 79.65625 18.78125 79.394531 19.164062 " fill-opacity="1" fill-rule="nonzero"/><path fill="rgb(89.019775%, 43.919373%, 33.329773%)" d="M 72.152344 22.304688 C 71.34375 24.152344 71.148438 26.046875 71.140625 28.046875 C 71.136719 28.515625 71.863281 28.515625 71.863281 28.046875 C 71.871094 26.191406 72.023438 24.386719 72.78125 22.671875 C 72.964844 22.246094 72.339844 21.878906 72.152344 22.304688 " fill-opacity="1" fill-rule="nonzero"/><path fill="rgb(89.019775%, 43.919373%, 33.329773%)" d="M 107.75 14.460938 C 109.679688 15.503906 111.339844 17.683594 111.308594 19.949219 C 111.304688 20.417969 112.027344 20.417969 112.03125 19.949219 C 112.066406 17.4375 110.265625 15 108.113281 13.835938 C 107.703125 13.613281 107.339844 14.242188 107.75 14.460938 " fill-opacity="1" fill-rule="nonzero"/><path fill="rgb(89.019775%, 43.919373%, 33.329773%)" d="M 114.347656 14.136719 C 115.601562 14.535156 116.570312 16 116.617188 17.292969 C 116.632812 17.757812 117.355469 17.757812 117.339844 17.292969 C 117.285156 15.667969 116.113281 13.9375 114.542969 13.4375 C 114.097656 13.296875 113.90625 13.996094 114.347656 14.136719 " fill-opacity="1" fill-rule="nonzero"/><path fill="rgb(83.529663%, 30.979919%, 28.62854%)" d="M 102.269531 117.285156 C 104.714844 116.773438 107.011719 118.273438 109.453125 117.765625 C 111.371094 117.371094 113.253906 116.257812 114.375 114.609375 C 116.636719 111.289062 115.898438 107.121094 113.375 104.167969 C 113.070312 103.8125 112.5625 104.328125 112.863281 104.683594 C 115.5625 107.835938 115.875 112.355469 112.742188 115.328125 C 111.074219 116.90625 108.921875 117.351562 106.71875 116.949219 C 105.101562 116.652344 103.722656 116.242188 102.074219 116.585938 C 101.617188 116.679688 101.8125 117.378906 102.269531 117.285156 " fill-opacity="1" fill-rule="nonzero"/><path fill="rgb(83.529663%, 30.979919%, 28.62854%)" d="M 116.664062 134.957031 C 118.886719 136.722656 120.609375 139.003906 122.648438 140.964844 C 124.496094 142.742188 126.84375 142.972656 129.28125 142.976562 C 129.75 142.976562 129.75 142.253906 129.28125 142.253906 C 126.34375 142.25 124.289062 141.652344 122.21875 139.507812 C 120.558594 137.792969 119.046875 135.933594 117.175781 134.441406 C 116.8125 134.15625 116.296875 134.664062 116.664062 134.957031 " fill-opacity="1" fill-rule="nonzero"/><path fill="rgb(83.529663%, 30.979919%, 28.62854%)" d="M 61.5625 126.605469 C 62.855469 124.714844 64.238281 123.136719 64.941406 120.894531 C 65.082031 120.449219 64.382812 120.257812 64.242188 120.703125 C 63.558594 122.882812 62.195312 124.402344 60.9375 126.238281 C 60.671875 126.625 61.296875 126.988281 61.5625 126.605469 " fill-opacity="1" fill-rule="nonzero"/><path fill="rgb(68.629456%, 88.62915%, 74.899292%)" d="M 85.734375 67.445312 C 85.089844 73.296875 92.128906 75.542969 96.804688 75.3125 C 102.613281 75.023438 108.640625 71.046875 110.8125 65.609375 C 110.988281 65.175781 110.289062 64.988281 110.117188 65.414062 C 108.066406 70.539062 102.597656 73.917969 97.261719 74.546875 C 92.886719 75.066406 85.851562 72.953125 86.460938 67.445312 C 86.511719 66.980469 85.789062 66.984375 85.734375 67.445312 " fill-opacity="1" fill-rule="nonzero"/><path fill="rgb(83.529663%, 30.979919%, 28.62854%)" d="M 69.4375 173.929688 C 70.1875 174.546875 71.113281 174.925781 71.792969 175.621094 C 72.863281 176.714844 72.714844 178.441406 72.707031 179.839844 C 72.703125 180.304688 73.429688 180.304688 73.433594 179.839844 C 73.441406 178.402344 73.46875 177.085938 72.777344 175.789062 C 72.152344 174.609375 70.925781 174.222656 69.949219 173.417969 C 69.589844 173.125 69.078125 173.632812 69.4375 173.929688 " fill-opacity="1" fill-rule="nonzero"/><path fill="rgb(83.529663%, 30.979919%, 28.62854%)" d="M 56.375 155.851562 C 58.046875 153.351562 58.675781 150.378906 59.648438 147.574219 C 60.847656 144.109375 62.394531 140.722656 64.714844 137.863281 C 67.042969 134.996094 69.386719 132.027344 71.304688 128.863281 C 72.109375 127.542969 72.761719 126.140625 73.339844 124.707031 C 74.0625 122.921875 74.046875 121.015625 74.746094 119.265625 C 74.921875 118.832031 74.21875 118.644531 74.046875 119.074219 C 73.429688 120.625 73.417969 122.328125 72.871094 123.917969 C 72.242188 125.726562 71.328125 127.429688 70.339844 129.0625 C 68.3125 132.402344 65.628906 135.292969 63.339844 138.441406 C 61.566406 140.871094 60.441406 143.609375 59.332031 146.386719 C 58.125 149.414062 57.589844 152.738281 55.75 155.484375 C 55.488281 155.875 56.113281 156.238281 56.375 155.851562 " fill-opacity="1" fill-rule="nonzero"/><path fill="rgb(83.529663%, 30.979919%, 28.62854%)" d="M 96.96875 173.929688 C 98.167969 172.394531 99.226562 170.765625 100.355469 169.175781 C 101.75 167.199219 103.496094 165.574219 105.269531 163.941406 C 107.871094 161.550781 110.886719 159.539062 112.992188 156.664062 C 117.0625 151.117188 118.980469 143.640625 119.707031 136.902344 C 119.757812 136.441406 119.03125 136.445312 118.984375 136.902344 C 118.238281 143.8125 116.179688 151.378906 111.875 156.957031 C 109.808594 159.636719 106.738281 161.609375 104.257812 163.890625 C 101.125 166.769531 99.046875 170.09375 96.457031 173.417969 C 96.175781 173.78125 96.683594 174.300781 96.96875 173.929688 " fill-opacity="1" fill-rule="nonzero"/></svg>