<svg xmlns="http://www.w3.org/2000/svg" xmlns:xlink="http://www.w3.org/1999/xlink" width="500" zoomAndPan="magnify" viewBox="0 0 375 374.999991" height="500" preserveAspectRatio="xMidYMid meet" version="1.0"><defs><clipPath id="id1"><path d="M 66.34375 23 L 133.992188 23 L 133.992188 116 L 66.34375 116 Z M 66.34375 23 " clip-rule="nonzero"/></clipPath><clipPath id="id2"><path d="M 50.03125 0 L 126 0 L 126 187 L 50.03125 187 Z M 50.03125 0 " clip-rule="nonzero"/></clipPath></defs><g clip-path="url(#id1)"><path fill="rgb(91.369629%, 91.758728%, 96.859741%)" d="M 85.234375 29.304688 C 84.136719 31.597656 77.402344 47.226562 75.613281 51.035156 C 73.824219 54.847656 66.5625 59.824219 66.5625 59.824219 C 66.5625 59.824219 68.769531 64.800781 71.613281 65.542969 C 74.457031 66.285156 78.980469 62.894531 78.980469 62.894531 L 71.421875 106.945312 C 72.226562 108.375 76.679688 114.179688 78.503906 115.457031 C 78.503906 115.457031 83.714844 51.953125 83.820312 46.34375 C 83.925781 40.730469 94.785156 23.269531 94.785156 23.269531 C 94.785156 23.269531 86.707031 26.234375 85.234375 29.304688 Z M 132.492188 60.402344 L 122.863281 71.683594 C 122.863281 71.683594 120.472656 69.292969 119.679688 68.492188 C 115.855469 69.082031 113.796875 62.601562 113.796875 62.601562 L 119.707031 54.53125 L 113.707031 47.964844 L 113.097656 68.136719 L 118.394531 109.066406 C 113.5 113.855469 83.558594 115.898438 83.558594 115.898438 C 83.558594 115.898438 84.851562 57.457031 87.480469 46.867188 C 90.113281 36.28125 105.566406 23.828125 105.566406 23.828125 C 105.566406 23.828125 112.828125 26.066406 115.71875 28.207031 C 122.148438 32.960938 127.140625 41.039062 131.492188 46.265625 C 134.1875 49.496094 134.980469 57.007812 132.492188 60.402344 " fill-opacity="1" fill-rule="nonzero"/></g><path fill="rgb(24.308777%, 59.609985%, 42.349243%)" d="M 102.039062 101.796875 C 102.03125 101.964844 102.160156 102.109375 102.332031 102.117188 C 102.335938 102.117188 102.339844 102.117188 102.34375 102.117188 C 102.507812 102.117188 102.640625 101.988281 102.648438 101.824219 C 103.109375 91.964844 104.058594 90.796875 104.261719 90.660156 C 104.375 90.738281 104.535156 90.734375 104.640625 90.636719 C 104.765625 90.523438 104.777344 90.328125 104.664062 90.203125 C 104.550781 90.074219 104.324219 89.980469 104.085938 90.066406 C 103.710938 90.199219 102.5625 90.609375 102.039062 101.796875 Z M 101.035156 88.363281 C 101.015625 88.464844 100.722656 90.15625 100.742188 91.796875 L 101.351562 91.636719 C 101.355469 90.085938 101.628906 88.492188 101.632812 88.46875 C 101.664062 88.300781 101.554688 88.144531 101.386719 88.113281 C 101.222656 88.085938 101.0625 88.195312 101.035156 88.363281 Z M 107.949219 89.902344 L 108.542969 89.75 C 108.417969 88.886719 108.273438 88.242188 108.257812 88.179688 C 108.222656 88.015625 108.058594 87.914062 107.894531 87.949219 C 107.730469 87.988281 107.628906 88.152344 107.664062 88.320312 C 107.667969 88.335938 107.820312 89.007812 107.949219 89.902344 Z M 104.082031 40.519531 L 97.792969 39.5625 L 97.589844 40.65625 L 103.84375 41.613281 Z M 117.894531 129.132812 C 116.8125 129.414062 115.707031 129.671875 114.585938 129.90625 C 113.460938 130.140625 112.785156 132.109375 111.628906 132.300781 C 111.1875 132.375 109.71875 125.917969 109.277344 125.984375 C 108.609375 126.085938 108.902344 132.917969 108.230469 133.003906 C 105.988281 133.285156 103.308594 131.519531 100.996094 131.644531 C 96.300781 131.898438 91.488281 131.832031 86.703125 131.453125 C 82.859375 133.441406 77.195312 134.144531 72.324219 129.363281 C 71.082031 129.09375 69.851562 128.804688 68.632812 128.492188 L 72.488281 108.292969 C 73.394531 109.203125 74.601562 110.070312 75.832031 110.9375 C 75.832031 110.9375 78.152344 88.066406 79.980469 69.03125 L 80 68.933594 L 87.09375 69.292969 C 85.980469 88.820312 85.488281 113.445312 85.488281 113.445312 C 85.488281 113.445312 107.296875 113.761719 115.789062 110.546875 L 117.894531 129.132812 " fill-opacity="1" fill-rule="nonzero"/><g clip-path="url(#id2)"><path fill="rgb(8.239746%, 14.509583%, 23.919678%)" d="M 109.996094 89.617188 C 109.972656 89.503906 109.863281 89.4375 109.753906 89.460938 L 99.074219 91.917969 C 98.964844 91.945312 98.894531 92.054688 98.921875 92.164062 C 98.945312 92.257812 99.027344 92.320312 99.121094 92.320312 C 99.132812 92.320312 99.148438 92.320312 99.164062 92.316406 L 109.84375 89.859375 C 109.953125 89.835938 110.023438 89.726562 109.996094 89.617188 Z M 109.027344 81.332031 C 109.261719 81.390625 109.492188 81.230469 109.523438 80.988281 L 109.660156 79.894531 C 109.691406 79.65625 109.507812 79.441406 109.265625 79.441406 L 107.605469 79.421875 C 107.398438 79.421875 107.226562 79.574219 107.199219 79.777344 L 107.113281 80.488281 C 107.085938 80.691406 107.214844 80.882812 107.414062 80.929688 Z M 99.257812 80.15625 L 99.449219 81.242188 C 99.488281 81.480469 99.730469 81.628906 99.960938 81.558594 L 101.550781 81.078125 C 101.746094 81.019531 101.867188 80.820312 101.832031 80.621094 L 101.707031 79.914062 C 101.671875 79.710938 101.492188 79.570312 101.289062 79.582031 L 99.628906 79.679688 C 99.386719 79.695312 99.214844 79.917969 99.257812 80.15625 Z M 103.015625 101.277344 C 102.554688 100.917969 101.890625 101.003906 101.535156 101.472656 C 101.179688 101.9375 101.265625 102.601562 101.730469 102.960938 C 102.191406 103.320312 102.855469 103.230469 103.210938 102.765625 C 103.566406 102.300781 103.480469 101.632812 103.015625 101.277344 Z M 103.445312 100.714844 C 104.359375 101.417969 104.53125 102.738281 103.828125 103.65625 C 103.128906 104.574219 101.820312 104.746094 100.90625 104.039062 C 99.992188 103.332031 99.820312 102.015625 100.523438 101.097656 C 101.226562 100.179688 102.535156 100.007812 103.445312 100.714844 Z M 89.058594 14.113281 C 89.058594 15.035156 89.609375 15.824219 90.394531 16.175781 C 90.6875 14.6875 90.933594 13.109375 91.113281 11.863281 C 89.964844 11.960938 89.058594 12.933594 89.058594 14.113281 Z M 93.792969 10.230469 C 94.039062 10.941406 94.363281 11.929688 94.6875 13.023438 C 94.929688 13.101562 95.167969 13.230469 95.371094 13.429688 C 95.851562 12.945312 96.515625 12.640625 97.25 12.640625 C 98.15625 12.640625 98.960938 13.105469 99.4375 13.804688 L 102.25 11.816406 C 101.953125 10.804688 101.628906 10.652344 101.113281 9.808594 C 100.835938 11.324219 100.753906 12.40625 100.753906 12.40625 Z M 99.496094 15.308594 C 99.496094 14.9375 99.402344 14.585938 99.242188 14.273438 C 99.222656 14.261719 99.207031 14.25 99.191406 14.230469 C 99.167969 14.199219 99.160156 14.164062 99.15625 14.128906 C 98.761719 13.484375 98.054688 13.050781 97.25 13.050781 C 96.609375 13.050781 96.035156 13.324219 95.625 13.757812 C 95.636719 13.773438 95.648438 13.789062 95.660156 13.808594 C 95.714844 13.90625 95.679688 14.03125 95.582031 14.085938 C 95.550781 14.105469 95.515625 14.113281 95.480469 14.113281 C 95.441406 14.113281 95.40625 14.097656 95.371094 14.078125 C 95.269531 14.238281 95.183594 14.410156 95.125 14.59375 C 95.320312 15.355469 95.503906 16.136719 95.644531 16.882812 C 96.050781 17.304688 96.621094 17.566406 97.25 17.566406 C 98.488281 17.566406 99.496094 16.554688 99.496094 15.308594 Z M 94.957031 13.976562 C 95.003906 13.894531 95.054688 13.820312 95.105469 13.746094 C 95.023438 13.664062 94.933594 13.597656 94.835938 13.539062 C 94.878906 13.683594 94.917969 13.828125 94.957031 13.976562 Z M 88.648438 14.113281 C 88.648438 12.6875 89.769531 11.519531 91.171875 11.453125 C 91.179688 11.394531 91.1875 11.339844 91.195312 11.285156 C 91.113281 11.289062 91.035156 11.246094 91 11.167969 C 90.953125 11.066406 91 10.941406 91.101562 10.898438 C 91.109375 10.890625 91.167969 10.867188 91.253906 10.839844 C 91.339844 10.203125 91.394531 9.753906 91.417969 9.585938 L 89.613281 9.097656 C 88.523438 -0.9375 101.578125 -0.617188 104.707031 2.574219 C 105.050781 2.925781 105.21875 3.230469 105.253906 3.511719 C 105.558594 3.734375 105.820312 3.957031 106.019531 4.171875 C 110.144531 8.503906 109.554688 18.398438 107.605469 20.863281 C 105.65625 23.328125 99.230469 22.351562 99.230469 22.351562 C 99.230469 22.351562 101.308594 21.070312 102.238281 16.101562 C 102.480469 14.796875 102.644531 13.390625 102.363281 12.238281 L 99.640625 14.164062 C 99.804688 14.511719 99.902344 14.898438 99.902344 15.308594 C 99.902344 16.78125 98.710938 17.976562 97.25 17.976562 C 96.695312 17.976562 96.179688 17.804688 95.753906 17.511719 C 95.847656 18.121094 95.914062 18.703125 95.929688 19.226562 C 96.035156 19.195312 96.140625 19.164062 96.25 19.121094 C 96.351562 19.082031 96.472656 19.132812 96.511719 19.238281 C 96.550781 19.34375 96.5 19.464844 96.394531 19.503906 C 96.238281 19.5625 96.082031 19.609375 95.933594 19.644531 C 95.910156 20.742188 95.640625 21.523438 94.960938 21.683594 C 92.058594 22.367188 88.976562 20.773438 88.976562 20.773438 C 89.464844 20.179688 89.925781 18.488281 90.3125 16.585938 C 89.339844 16.191406 88.648438 15.230469 88.648438 14.113281 Z M 96.582031 12.265625 C 96.625 12.246094 97.613281 11.851562 98.589844 12.777344 C 98.628906 12.8125 98.679688 12.832031 98.730469 12.832031 C 98.785156 12.832031 98.839844 12.808594 98.878906 12.765625 C 98.957031 12.6875 98.949219 12.554688 98.867188 12.476562 C 97.691406 11.363281 96.476562 11.863281 96.425781 11.886719 C 96.320312 11.929688 96.273438 12.046875 96.316406 12.152344 C 96.359375 12.257812 96.480469 12.308594 96.582031 12.265625 Z M 97.503906 13.796875 C 97.257812 13.765625 97.035156 13.9375 97 14.183594 C 96.96875 14.429688 97.140625 14.652344 97.382812 14.6875 C 97.628906 14.71875 97.851562 14.546875 97.886719 14.300781 C 97.917969 14.054688 97.746094 13.828125 97.503906 13.796875 Z M 98.570312 42.136719 L 98.585938 42.136719 C 98.683594 42.152344 98.777344 42.085938 98.789062 41.984375 L 99.171875 39.261719 L 99.625 39.324219 L 99.675781 38.953125 L 99.222656 38.890625 L 99.234375 38.820312 C 99.246094 38.71875 99.179688 38.628906 99.078125 38.613281 L 99.066406 38.613281 C 98.964844 38.597656 98.878906 38.667969 98.863281 38.765625 L 98.851562 38.835938 L 98.421875 38.773438 L 98.367188 39.148438 L 98.800781 39.207031 L 98.417969 41.933594 C 98.40625 42.03125 98.472656 42.121094 98.570312 42.136719 Z M 79.550781 58.464844 C 79.664062 58.464844 79.753906 58.371094 79.753906 58.257812 L 79.570312 44.757812 C 79.570312 44.644531 79.480469 44.554688 79.367188 44.554688 C 79.253906 44.558594 79.164062 44.648438 79.164062 44.765625 L 79.347656 58.261719 C 79.347656 58.375 79.4375 58.464844 79.550781 58.464844 Z M 75.410156 52.253906 C 75.429688 52.257812 77.125 52.796875 77.632812 54.578125 C 77.65625 54.667969 77.738281 54.726562 77.828125 54.726562 C 77.84375 54.726562 77.863281 54.722656 77.882812 54.71875 C 77.992188 54.6875 78.054688 54.570312 78.023438 54.464844 C 77.457031 52.464844 75.609375 51.886719 75.527344 51.863281 C 75.421875 51.828125 75.308594 51.890625 75.277344 52 C 75.242188 52.105469 75.304688 52.222656 75.410156 52.253906 Z M 125.570312 55.886719 C 123.851562 53.949219 121.601562 54.089844 120.527344 54.304688 C 120.796875 54.035156 122.417969 52.453125 124 52.214844 C 124.113281 52.199219 124.1875 52.09375 124.171875 51.980469 C 124.15625 51.871094 124.054688 51.789062 123.941406 51.808594 C 122.078125 52.089844 120.273438 53.980469 120.195312 54.058594 C 120.121094 54.144531 120.121094 54.273438 120.203125 54.347656 C 120.210938 54.359375 120.222656 54.367188 120.230469 54.371094 C 120.03125 54.421875 119.914062 54.460938 119.910156 54.464844 C 119.804688 54.503906 119.75 54.621094 119.789062 54.730469 C 119.828125 54.835938 119.949219 54.890625 120.050781 54.847656 C 120.082031 54.835938 123.121094 53.738281 125.269531 56.160156 C 125.308594 56.207031 125.363281 56.230469 125.421875 56.230469 C 125.46875 56.230469 125.515625 56.214844 125.554688 56.179688 C 125.640625 56.101562 125.648438 55.972656 125.570312 55.886719 Z M 72.53125 103.996094 C 72.453125 103.914062 72.324219 103.914062 72.246094 103.996094 C 72.164062 104.074219 72.164062 104.207031 72.246094 104.285156 C 72.308594 104.347656 73.824219 105.867188 75.550781 106.871094 C 75.582031 106.890625 75.617188 106.898438 75.652344 106.898438 C 75.722656 106.898438 75.789062 106.863281 75.828125 106.796875 C 75.882812 106.699219 75.851562 106.574219 75.753906 106.519531 C 74.074219 105.539062 72.546875 104.011719 72.53125 103.996094 Z M 117.042969 105.53125 C 109.667969 111.523438 86.148438 109.792969 85.910156 109.773438 C 85.796875 109.761719 85.699219 109.847656 85.691406 109.960938 C 85.683594 110.074219 85.765625 110.171875 85.878906 110.183594 C 86.234375 110.210938 89.515625 110.453125 93.90625 110.453125 C 101.542969 110.453125 112.535156 109.71875 117.296875 105.851562 C 117.386719 105.777344 117.398438 105.652344 117.328125 105.5625 C 117.257812 105.476562 117.132812 105.460938 117.042969 105.53125 Z M 75.902344 55.414062 C 75.890625 55.527344 75.976562 55.625 76.085938 55.636719 C 76.09375 55.636719 76.097656 55.636719 76.105469 55.636719 C 76.207031 55.636719 76.296875 55.558594 76.308594 55.449219 C 76.316406 55.363281 76.484375 53.328125 75.328125 52.355469 C 75.242188 52.285156 75.113281 52.296875 75.042969 52.382812 C 74.96875 52.46875 74.980469 52.597656 75.066406 52.671875 C 76.058594 53.503906 75.902344 55.394531 75.902344 55.414062 Z M 108.773438 43.023438 C 108.695312 43.105469 108.699219 43.238281 108.78125 43.3125 L 111.554688 45.9375 C 110.929688 46.054688 109.523438 46.363281 108.199219 46.992188 C 108.097656 47.039062 108.054688 47.164062 108.101562 47.265625 C 108.152344 47.367188 108.273438 47.410156 108.375 47.363281 C 109.96875 46.601562 111.746094 46.316406 111.925781 46.285156 L 113.316406 47.601562 C 113.355469 47.636719 113.402344 47.65625 113.453125 47.65625 C 113.507812 47.65625 113.5625 47.632812 113.601562 47.59375 C 113.679688 47.507812 113.675781 47.378906 113.59375 47.300781 L 109.058594 43.015625 C 108.980469 42.9375 108.851562 42.941406 108.773438 43.023438 Z M 106.917969 34.210938 C 105.699219 38.164062 108.191406 42.105469 108.296875 42.273438 C 108.335938 42.332031 108.402344 42.367188 108.46875 42.367188 C 108.507812 42.367188 108.542969 42.355469 108.578125 42.332031 C 108.671875 42.273438 108.699219 42.144531 108.640625 42.050781 C 108.613281 42.011719 106.144531 38.097656 107.304688 34.332031 C 107.996094 32.097656 109.816406 30.34375 112.714844 29.125 C 112.820312 29.078125 112.867188 28.960938 112.824219 28.855469 C 112.78125 28.75 112.664062 28.703125 112.558594 28.746094 C 109.539062 30.015625 107.640625 31.855469 106.917969 34.210938 Z M 69.175781 52.480469 C 69.210938 52.503906 69.671875 52.476562 69.710938 52.414062 L 71.3125 49.9375 C 71.371094 49.84375 71.210938 49.429688 71.113281 49.367188 C 71.019531 49.304688 70.738281 49.480469 70.679688 49.578125 L 69.089844 51.988281 C 69.027344 52.082031 69.082031 52.421875 69.175781 52.480469 Z M 71.039062 58.269531 L 70.210938 59.980469 C 70.160156 60.082031 70.261719 60.261719 70.363281 60.3125 C 70.390625 60.324219 70.421875 60.332031 70.449219 60.332031 C 70.523438 60.332031 70.777344 60.117188 70.808594 60.046875 L 71.484375 58.546875 C 71.535156 58.441406 71.511719 58.210938 71.410156 58.160156 C 71.308594 58.113281 71.085938 58.167969 71.039062 58.269531 Z M 80.613281 62.382812 C 80.410156 64.515625 80.199219 66.746094 79.980469 69.03125 C 79.957031 69.296875 79.929688 69.5625 79.902344 69.828125 L 87.007812 70.8125 C 87.035156 70.300781 87.0625 69.792969 87.09375 69.292969 C 87.644531 59.558594 88.351562 51.085938 89.226562 47.566406 C 91.628906 37.890625 103.273438 26.085938 105.269531 24.117188 C 102.433594 22.613281 96.789062 23.597656 94.023438 24.222656 C 91.308594 27.65625 82.226562 39.488281 82.136719 44.261719 C 82.105469 45.914062 81.546875 52.378906 80.773438 60.679688 L 72.488281 54.738281 L 73.4375 53.203125 C 73.496094 53.113281 73.386719 52.863281 73.292969 52.796875 C 73.199219 52.734375 73.019531 52.816406 72.957031 52.910156 L 71.898438 54.335938 L 71.027344 53.730469 L 72.859375 51.097656 C 72.921875 51.007812 72.90625 50.648438 72.816406 50.585938 C 72.722656 50.519531 72.378906 50.578125 72.3125 50.671875 L 70.441406 53.292969 L 68.207031 51.679688 C 68.804688 51.230469 68.710938 50.273438 68.597656 49.828125 C 68.570312 49.71875 68.363281 49.6875 68.253906 49.714844 C 68.144531 49.742188 68.082031 49.851562 68.109375 49.960938 C 68.117188 50.003906 68.15625 50.816406 67.476562 51.199219 L 52.375 40.394531 L 50.058594 42.035156 L 65.007812 52.425781 L 72.164062 57.398438 L 79.316406 62.367188 Z M 91.800781 179.773438 C 91.703125 179.191406 91.578125 178.621094 91.441406 178.054688 C 91.441406 178.054688 74.777344 180.894531 73.691406 180.8125 C 69.449219 182.761719 65.003906 185.015625 64.066406 186.277344 C 62.175781 188.828125 92.046875 181.226562 92.046875 181.226562 Z M 111.542969 183.878906 L 111.554688 185.355469 C 111.554688 185.355469 80.863281 188.085938 83.128906 185.875 C 84.257812 184.777344 89 183.261719 93.496094 182.015625 C 94.558594 182.265625 111.457031 182.125 111.457031 182.125 C 111.503906 182.707031 111.535156 183.289062 111.542969 183.878906 " fill-opacity="1" fill-rule="nonzero"/></g><path fill="rgb(88.62915%, 30.589294%, 20.388794%)" d="M 108.125 87.992188 C 108.058594 87.949219 107.976562 87.929688 107.894531 87.949219 C 107.824219 87.964844 107.765625 88.011719 107.722656 88.0625 C 107.152344 85.457031 105.917969 81.011719 104.613281 80.660156 C 104.566406 80.648438 104.519531 80.636719 104.472656 80.625 C 104.425781 80.640625 104.382812 80.652344 104.335938 80.667969 C 103.042969 81.085938 102.027344 85.628906 101.589844 88.253906 C 101.542969 88.183594 101.476562 88.128906 101.386719 88.113281 C 101.316406 88.101562 101.25 88.121094 101.191406 88.148438 C 101.542969 86.039062 102.425781 81.601562 103.832031 80.492188 C 102.804688 80.316406 102.105469 80.40625 101.804688 80.464844 L 101.734375 80.0625 C 102.136719 79.980469 103.082031 79.871094 104.464844 80.203125 C 105.824219 79.800781 106.777344 79.863281 107.183594 79.925781 L 107.132812 80.332031 C 106.832031 80.289062 106.125 80.234375 105.109375 80.457031 C 106.570312 81.5 107.675781 85.90625 108.125 87.992188 Z M 88.972656 27.214844 L 89.359375 29.957031 C 89.375 30.066406 89.296875 30.171875 89.1875 30.1875 C 89.074219 30.199219 88.972656 30.125 88.957031 30.011719 L 88.726562 28.378906 L 87.085938 29.632812 L 83.027344 40.453125 C 82.996094 40.539062 82.917969 40.585938 82.835938 40.585938 C 82.8125 40.585938 82.789062 40.582031 82.761719 40.574219 C 82.660156 40.535156 82.605469 40.414062 82.644531 40.308594 L 86.726562 29.433594 C 86.738281 29.398438 86.761719 29.363281 86.792969 29.339844 L 88.492188 28.042969 C 88.546875 28 88.613281 27.992188 88.671875 28.007812 L 88.550781 27.140625 C 88.539062 27.058594 88.574219 26.980469 88.644531 26.9375 L 93.265625 24.0625 C 93.363281 24.003906 93.488281 24.035156 93.546875 24.128906 C 93.605469 24.226562 93.578125 24.351562 93.480469 24.410156 Z M 101.59375 32.078125 L 100.847656 35.566406 C 100.839844 35.605469 100.820312 35.640625 100.792969 35.667969 L 90.050781 46.683594 C 90.011719 46.722656 89.960938 46.742188 89.90625 46.742188 C 89.855469 46.742188 89.804688 46.726562 89.765625 46.6875 C 89.683594 46.605469 89.683594 46.476562 89.761719 46.394531 L 100.464844 35.425781 L 101.1875 32.054688 L 98.011719 33.453125 C 97.910156 33.5 97.789062 33.453125 97.742188 33.351562 C 97.699219 33.246094 97.746094 33.125 97.847656 33.082031 L 104.414062 30.183594 L 105.414062 25.089844 C 105.433594 24.976562 105.539062 24.902344 105.652344 24.925781 C 105.761719 24.949219 105.832031 25.054688 105.8125 25.167969 L 104.792969 30.367188 C 104.777344 30.429688 104.734375 30.488281 104.675781 30.515625 L 101.542969 31.894531 C 101.589844 31.941406 101.609375 32.011719 101.59375 32.078125 Z M 92.523438 13.125 C 92.765625 13.160156 92.9375 13.386719 92.90625 13.632812 C 92.871094 13.878906 92.648438 14.050781 92.402344 14.015625 C 92.160156 13.984375 91.988281 13.757812 92.019531 13.511719 C 92.050781 13.265625 92.277344 13.09375 92.523438 13.125 Z M 90.351562 16.15625 C 90.640625 16.292969 90.960938 16.371094 91.300781 16.371094 C 92.539062 16.371094 93.542969 15.359375 93.542969 14.113281 C 93.542969 13.84375 93.496094 13.585938 93.410156 13.34375 C 93.371094 13.351562 93.351562 13.355469 93.347656 13.355469 C 93.242188 13.378906 93.132812 13.308594 93.109375 13.199219 C 93.085938 13.097656 93.140625 13.007812 93.234375 12.96875 C 92.84375 12.304688 92.125 11.855469 91.300781 11.855469 C 90.964844 11.855469 90.644531 11.933594 90.359375 12.066406 C 90.261719 13.351562 90.25 14.726562 90.34375 16.066406 C 90.34375 16.097656 90.347656 16.125 90.351562 16.15625 Z M 91 11.167969 C 90.953125 11.066406 91 10.941406 91.101562 10.898438 C 91.152344 10.871094 92.351562 10.335938 93.5625 11.414062 C 93.644531 11.488281 93.652344 11.617188 93.578125 11.703125 C 93.539062 11.75 93.484375 11.773438 93.425781 11.773438 C 93.378906 11.773438 93.328125 11.753906 93.292969 11.722656 C 92.277344 10.820312 91.28125 11.261719 91.269531 11.265625 C 91.167969 11.316406 91.046875 11.269531 91 11.167969 Z M 96.425781 11.886719 C 96.476562 11.863281 97.691406 11.363281 98.867188 12.476562 C 98.949219 12.554688 98.957031 12.6875 98.878906 12.765625 C 98.839844 12.808594 98.785156 12.832031 98.730469 12.832031 C 98.679688 12.832031 98.628906 12.8125 98.589844 12.777344 C 97.613281 11.851562 96.625 12.246094 96.582031 12.265625 C 96.480469 12.308594 96.359375 12.257812 96.316406 12.152344 C 96.273438 12.046875 96.320312 11.929688 96.425781 11.886719 Z M 93.660156 12.90625 C 94.113281 12.875 94.855469 12.925781 95.371094 13.429688 C 95.851562 12.945312 96.515625 12.640625 97.25 12.640625 C 98.15625 12.640625 98.960938 13.105469 99.4375 13.804688 L 102.25 11.816406 C 101.953125 10.804688 101.507812 9.867188 100.992188 9.023438 C 100.710938 10.539062 100.898438 12.152344 100.898438 12.152344 L 90.707031 9.390625 C 90.574219 10.074219 90.472656 10.820312 90.398438 11.609375 C 90.679688 11.503906 90.984375 11.445312 91.300781 11.445312 C 92.332031 11.445312 93.222656 12.039062 93.660156 12.90625 Z M 94.960938 23.144531 C 97.777344 23.234375 99.511719 23.953125 102.082031 17.804688 C 102.203125 17.320312 102.320312 16.785156 102.433594 16.1875 M 96.394531 19.503906 C 95.898438 19.695312 95.425781 19.765625 94.996094 19.765625 C 93.710938 19.765625 92.804688 19.117188 92.753906 19.082031 C 92.664062 19.015625 92.640625 18.890625 92.707031 18.796875 C 92.773438 18.707031 92.898438 18.683594 92.992188 18.75 C 93.003906 18.761719 94.472656 19.796875 96.25 19.121094 C 96.351562 19.082031 96.472656 19.132812 96.511719 19.238281 C 96.550781 19.34375 96.5 19.464844 96.394531 19.503906 Z M 99.640625 14.164062 C 99.804688 14.511719 99.902344 14.898438 99.902344 15.308594 C 99.902344 16.78125 98.710938 17.976562 97.25 17.976562 C 95.789062 17.976562 94.597656 16.78125 94.597656 15.308594 C 94.597656 14.726562 94.789062 14.1875 95.105469 13.746094 C 94.746094 13.382812 94.210938 13.308594 93.828125 13.308594 C 93.910156 13.566406 93.953125 13.832031 93.953125 14.113281 C 93.953125 14.1875 93.945312 14.261719 93.941406 14.335938 C 94.027344 14.113281 94.125 13.867188 94.238281 13.59375 C 94.285156 13.492188 94.40625 13.441406 94.507812 13.484375 C 94.609375 13.53125 94.660156 13.648438 94.613281 13.753906 C 94.199219 14.734375 93.792969 15.917969 93.820312 16.203125 C 93.984375 16.285156 94.304688 16.222656 94.441406 16.175781 C 94.546875 16.144531 94.664062 16.203125 94.699219 16.308594 C 94.734375 16.414062 94.675781 16.53125 94.570312 16.566406 C 94.527344 16.582031 94.296875 16.652344 94.039062 16.652344 C 93.871094 16.652344 93.691406 16.621094 93.546875 16.519531 C 93.472656 16.464844 93.320312 16.347656 93.53125 15.550781 C 93.058594 16.289062 92.234375 16.78125 91.300781 16.78125 C 90.980469 16.78125 90.675781 16.71875 90.390625 16.617188 C 90.601562 18.800781 91.125 20.589844 92.082031 21.742188 C 92.777344 22.582031 93.699219 23.082031 94.898438 23.136719 C 94.917969 23.136719 94.9375 23.144531 94.960938 23.144531 C 97.777344 23.234375 100.296875 20.8125 102.082031 17.804688 C 102.203125 17.320312 102.320312 16.785156 102.433594 16.1875 C 102.789062 16.410156 103.207031 16.539062 103.65625 16.539062 C 104.953125 16.539062 106.003906 15.480469 106.003906 14.175781 C 106.003906 12.875 104.953125 11.816406 103.65625 11.816406 C 103.265625 11.816406 102.898438 11.914062 102.574219 12.085938 C 102.570312 12.085938 102.570312 12.089844 102.566406 12.089844 L 102.066406 12.449219 Z M 97.503906 13.796875 C 97.746094 13.828125 97.917969 14.054688 97.886719 14.300781 C 97.851562 14.546875 97.628906 14.71875 97.382812 14.6875 C 97.140625 14.652344 96.96875 14.429688 97 14.183594 C 97.035156 13.9375 97.257812 13.765625 97.503906 13.796875 Z M 95.582031 14.085938 C 95.550781 14.105469 95.515625 14.113281 95.480469 14.113281 C 95.441406 14.113281 95.40625 14.097656 95.371094 14.078125 C 95.140625 14.433594 95.003906 14.855469 95.003906 15.308594 C 95.003906 16.554688 96.011719 17.566406 97.25 17.566406 C 98.488281 17.566406 99.496094 16.554688 99.496094 15.308594 C 99.496094 14.9375 99.402344 14.585938 99.242188 14.273438 C 99.222656 14.261719 99.207031 14.25 99.191406 14.230469 C 99.167969 14.199219 99.160156 14.164062 99.15625 14.128906 C 98.761719 13.484375 98.054688 13.050781 97.25 13.050781 C 96.609375 13.050781 96.035156 13.324219 95.625 13.757812 C 95.636719 13.773438 95.648438 13.789062 95.660156 13.808594 C 95.714844 13.90625 95.679688 14.03125 95.582031 14.085938 " fill-opacity="1" fill-rule="nonzero"/><path fill="rgb(65.489197%, 23.529053%, 15.689087%)" d="M 99.625 38.800781 C 99.644531 38.644531 99.539062 38.5 99.382812 38.476562 L 98.820312 38.398438 C 98.664062 38.375 98.523438 38.484375 98.503906 38.640625 L 98.480469 38.785156 L 98.851562 38.835938 L 98.863281 38.765625 C 98.878906 38.667969 98.964844 38.597656 99.066406 38.613281 L 99.078125 38.613281 C 99.179688 38.628906 99.246094 38.71875 99.234375 38.820312 L 99.222656 38.890625 L 99.605469 38.941406 Z M 99.101562 39.761719 L 99.480469 39.820312 L 99.550781 39.316406 L 99.171875 39.261719 Z M 98.359375 39.648438 L 98.730469 39.703125 L 98.800781 39.207031 L 98.429688 39.15625 Z M 71.355469 58.226562 C 71.253906 58.175781 71.132812 58.21875 71.082031 58.320312 L 70.332031 59.867188 C 70.28125 59.96875 70.324219 60.089844 70.425781 60.140625 C 70.453125 60.15625 70.484375 60.164062 70.515625 60.164062 C 70.589844 60.164062 70.664062 60.121094 70.699219 60.046875 L 71.449219 58.5 C 71.496094 58.398438 71.453125 58.277344 71.355469 58.226562 Z M 71.121094 49.863281 C 71.179688 49.769531 71.152344 49.644531 71.058594 49.582031 C 70.964844 49.519531 70.839844 49.546875 70.777344 49.640625 L 69.199219 52.101562 C 69.140625 52.199219 69.167969 52.324219 69.261719 52.386719 C 69.292969 52.410156 69.332031 52.421875 69.371094 52.421875 C 69.4375 52.421875 69.503906 52.386719 69.539062 52.324219 Z M 70.425781 53.648438 C 70.363281 53.742188 70.386719 53.871094 70.480469 53.933594 C 70.515625 53.957031 70.554688 53.96875 70.59375 53.96875 C 70.660156 53.96875 70.722656 53.9375 70.761719 53.878906 L 72.734375 50.980469 C 72.796875 50.886719 72.773438 50.761719 72.679688 50.695312 C 72.589844 50.632812 72.460938 50.65625 72.398438 50.75 Z M 72.988281 52.933594 L 71.648438 54.960938 C 71.585938 55.054688 71.609375 55.179688 71.703125 55.242188 C 71.738281 55.265625 71.777344 55.277344 71.816406 55.277344 C 71.882812 55.277344 71.945312 55.246094 71.984375 55.1875 L 73.328125 53.164062 C 73.390625 53.066406 73.363281 52.941406 73.269531 52.878906 C 73.175781 52.816406 73.050781 52.84375 72.988281 52.933594 Z M 68.503906 49.863281 C 68.472656 49.753906 68.363281 49.6875 68.253906 49.714844 C 68.144531 49.742188 68.082031 49.851562 68.109375 49.960938 C 68.121094 50.011719 68.394531 51.160156 67.386719 51.421875 C 66.128906 51.75 65.507812 52.320312 65.480469 52.34375 C 65.402344 52.421875 65.394531 52.550781 65.472656 52.632812 C 65.511719 52.675781 65.566406 52.695312 65.621094 52.695312 C 65.671875 52.695312 65.722656 52.679688 65.757812 52.644531 C 65.765625 52.636719 66.335938 52.117188 67.488281 51.816406 C 68.609375 51.527344 68.644531 50.410156 68.503906 49.863281 Z M 71.582031 58.289062 C 71.582031 58.289062 72.054688 62.417969 70.078125 62.140625 C 68.828125 61.964844 67.65625 60.71875 66.828125 59.640625 C 66.347656 59.015625 65.980469 58.449219 65.777344 58.171875 C 65.226562 57.417969 65.777344 54.796875 65.777344 54.636719 C 65.777344 54.476562 64.949219 53.484375 64.988281 52.769531 C 64.996094 52.679688 65.003906 52.5625 65.015625 52.429688 C 65.082031 51.652344 65.257812 50.28125 65.539062 49.800781 C 65.589844 49.714844 65.644531 49.65625 65.699219 49.632812 C 66.132812 49.476562 68.148438 49.753906 68.148438 49.753906 C 68.148438 49.753906 69.488281 48.003906 70.160156 48.203125 C 70.832031 48.402344 71.105469 49.277344 71.105469 49.277344 C 71.105469 49.277344 71.621094 48.761719 72.328125 49.238281 C 73.042969 49.714844 72.683594 50.386719 72.683594 50.386719 C 72.683594 50.386719 73.710938 50.46875 73.632812 51.300781 C 73.554688 52.136719 73.277344 52.570312 73.277344 52.570312 C 73.277344 52.570312 74.203125 52.324219 74.363281 52.957031 C 74.382812 53.039062 74.390625 53.132812 74.382812 53.25 C 74.351562 53.636719 73.910156 54.5 73.386719 55.40625 C 72.976562 56.113281 72.519531 56.847656 72.164062 57.398438 C 71.820312 57.929688 71.582031 58.289062 71.582031 58.289062 Z M 113.886719 62.65625 L 113.601562 62.925781 L 113.246094 63.261719 L 107.046875 69.089844 L 105.203125 68.984375 L 103.886719 66.335938 L 101.308594 64.273438 L 97.625 64.273438 C 97.625 64.273438 97.207031 65.277344 98.519531 65.542969 C 99.835938 65.808594 100.46875 66.761719 100.46875 66.761719 L 95.519531 66.335938 L 90.890625 68.71875 C 90.890625 68.71875 91.417969 69.726562 92.363281 69.40625 C 93.3125 69.089844 96.417969 68.453125 96.417969 68.453125 L 98.152344 68.824219 L 95.152344 69.304688 L 90.523438 72.636719 C 90.523438 72.636719 91.628906 73.484375 92.996094 72.53125 C 94.363281 71.578125 95.996094 71.15625 95.996094 71.15625 L 98.097656 71.050781 L 94.574219 72.796875 L 91.945312 75.335938 C 91.945312 75.335938 92.574219 75.867188 94.679688 74.753906 C 96.785156 73.644531 97.152344 73.855469 97.152344 73.855469 L 93.890625 76.078125 C 93.890625 76.078125 93.945312 77.191406 95.679688 76.398438 C 97.417969 75.601562 98.625 74.96875 98.625 74.96875 C 98.625 74.96875 100.414062 75.125 101.046875 75.179688 C 101.675781 75.234375 105.152344 77.085938 106.835938 75.65625 C 107.652344 74.964844 110.664062 73.253906 113.554688 71.671875 C 116.351562 70.140625 119.03125 68.738281 119.492188 68.496094 C 119.535156 68.472656 119.570312 68.453125 119.570312 68.453125 Z M 95.460938 29.210938 C 97.0625 29.769531 98.921875 29.542969 100.699219 28.992188 C 102.832031 26.558594 104.597656 24.78125 105.269531 24.117188 C 105.332031 24.058594 105.378906 24.011719 105.425781 23.964844 C 104.957031 23.519531 104.488281 22.972656 104.109375 22.335938 C 102.21875 22.460938 100.398438 22.003906 100.398438 22.003906 C 100.398438 22.003906 101.253906 21.1875 102.082031 17.804688 C 100.296875 20.8125 97.777344 23.234375 94.960938 23.144531 C 94.9375 23.144531 94.917969 23.136719 94.898438 23.136719 C 94.808594 23.457031 94.71875 23.792969 94.59375 24.097656 C 94.457031 24.421875 94.277344 24.714844 94.007812 24.921875 C 93.167969 25.5625 93.375 28.480469 95.460938 29.210938 Z M 87.167969 131.484375 C 82.007812 131.097656 76.875 130.355469 71.929688 129.269531 L 80.320312 170.070312 C 81.390625 174.101562 79.382812 178.320312 75.589844 180.003906 C 74.871094 180.324219 74.304688 180.59375 73.855469 180.828125 C 74.890625 180.921875 75.925781 181.195312 76.734375 181.808594 L 91.441406 178.054688 C 90.859375 174.523438 89.984375 172.933594 87.992188 169.96875 C 87.992188 169.96875 90.859375 144.796875 87.167969 131.484375 Z M 109.328125 173.59375 C 110.824219 176.835938 111.441406 178.546875 111.457031 182.125 L 96.34375 183.484375 C 95.644531 182.746094 94.664062 182.3125 93.652344 182.054688 C 94.136719 181.894531 94.738281 181.71875 95.5 181.519531 C 99.511719 180.460938 102.15625 176.617188 101.734375 172.464844 L 101.066406 131.632812 C 103.351562 131.507812 105.613281 131.3125 107.832031 131.03125 C 108.503906 130.945312 108.527344 123.941406 109.191406 123.84375 C 109.636719 123.777344 110.722656 130.621094 111.164062 130.546875 C 112.339844 130.351562 113.5 130.136719 114.644531 129.894531 C 116.386719 144.894531 109.328125 173.59375 109.328125 173.59375 " fill-opacity="1" fill-rule="nonzero"/></svg>