<svg xmlns="http://www.w3.org/2000/svg" xmlns:xlink="http://www.w3.org/1999/xlink" width="500" zoomAndPan="magnify" viewBox="0 0 375 374.999991" height="500" preserveAspectRatio="xMidYMid meet" version="1.0"><path fill="rgb(50.979614%, 68.629456%, 65.098572%)" d="M 116.515625 151.035156 C 116.738281 152.566406 116.515625 155.21875 116.515625 155.21875 C 114.386719 156.972656 111.738281 156.785156 109.609375 156.226562 C 107.484375 155.664062 104.050781 155.515625 99.347656 156.9375 C 94.644531 158.316406 88.414062 157.421875 86.398438 156.488281 C 84.867188 152.003906 89.046875 148.195312 95.316406 147.109375 C 101.585938 146.027344 102.742188 143.410156 102.742188 143.410156 C 104.832031 141.019531 107.96875 139.339844 111.175781 139.453125 C 112.371094 139.488281 113.714844 139.824219 114.386719 140.796875 C 114.871094 141.542969 114.910156 142.515625 114.871094 143.410156 C 114.835938 144.308594 114.722656 145.242188 115.058594 146.101562 C 115.394531 146.960938 116.289062 147.632812 117.148438 147.371094 C 117.296875 148.640625 117.109375 149.914062 116.515625 151.035156 Z M 116.515625 151.035156 " fill-opacity="1" fill-rule="nonzero"/><path fill="rgb(100%, 64.309692%, 44.309998%)" d="M 165.324219 149.203125 C 153.421875 151.816406 132.746094 155.964844 124.050781 155.515625 C 116.328125 155.144531 111.664062 151.332031 110.132812 144.382812 C 109.3125 140.648438 105.28125 136.128906 110.394531 130.523438 C 110.542969 129.625 110.730469 128.730469 110.953125 127.796875 C 119.015625 124.882812 126.550781 134.109375 135.398438 133.398438 C 142.003906 132.875 155.027344 135.34375 164.132812 135.867188 C 169.582031 139.863281 167.191406 145.054688 165.324219 149.203125 Z M 98.003906 104.820312 C 93.191406 100.449219 81.996094 91.371094 81.996094 91.371094 C 76.621094 94.621094 72.105469 99.214844 74.605469 107.957031 C 74.828125 108.78125 84.308594 105.566406 84.683594 106.464844 C 86.101562 109.976562 80.167969 118.457031 83.972656 122.9375 C 88.414062 128.132812 93.5625 133.398438 97.40625 137.398438 C 98.414062 137.171875 102.519531 138.816406 103.453125 138.292969 C 106.25 136.726562 106.328125 135.640625 108.453125 133.214844 C 108.9375 132.652344 108.902344 129.179688 109.347656 128.542969 C 108.378906 126.789062 107.484375 124.917969 106.886719 123.199219 C 104.125 116.253906 100.167969 106.726562 98.003906 104.820312 " fill-opacity="1" fill-rule="nonzero"/><path fill="rgb(100%, 83.139038%, 59.21936%)" d="M 92.964844 70.75 C 86.136719 84.308594 63.632812 80.351562 63.632812 80.351562 C 63.632812 80.351562 65.050781 74.296875 60.722656 63.726562 C 55.460938 50.910156 57.328125 39.144531 63.523438 38.695312 C 63.746094 38.734375 67.628906 29.316406 78.5625 31.074219 C 89.496094 32.828125 92.292969 45.980469 91.773438 54.238281 " fill-opacity="1" fill-rule="nonzero"/><path fill="rgb(96.859741%, 48.629761%, 27.449036%)" d="M 132.484375 136.128906 C 119.910156 134.59375 113.34375 130.449219 110.839844 128.507812 C 110.878906 128.28125 110.917969 128.058594 110.992188 127.832031 C 119.050781 124.917969 126.589844 134.148438 135.433594 133.4375 C 136.816406 133.324219 138.496094 133.363281 140.359375 133.472656 C 137.152344 135.417969 131.402344 138.816406 131.179688 138.292969 C 130.882812 137.507812 132.484375 136.128906 132.484375 136.128906 Z M 100.953125 108.445312 C 100.09375 107.0625 99.125 105.828125 98.003906 104.820312 C 95.390625 102.464844 90.988281 98.769531 87.441406 95.816406 C 87.21875 96.191406 87.105469 96.601562 87.070312 97.050781 C 87.03125 97.347656 87.03125 97.648438 86.847656 97.871094 C 86.695312 98.058594 86.472656 98.097656 86.25 98.171875 C 83.898438 98.953125 81.996094 100.75 80.203125 102.503906 C 78.335938 104.335938 76.472656 106.128906 74.605469 107.957031 C 74.828125 108.78125 75.128906 109.640625 75.5 110.535156 C 76.917969 114.046875 80.167969 118.457031 83.972656 122.902344 C 84.605469 122.640625 85.203125 122.304688 85.765625 122.003906 C 89.421875 119.949219 93.117188 117.859375 96.027344 114.832031 C 97.78125 113.003906 99.234375 110.910156 100.691406 108.816406 C 100.765625 108.707031 100.878906 108.59375 100.953125 108.445312 Z M 100.953125 108.445312 " fill-opacity="1" fill-rule="nonzero"/><path fill="rgb(26.269531%, 15.289307%, 5.879211%)" d="M 144.390625 78.894531 C 148.347656 82.929688 157.453125 92.976562 155.398438 108.816406 C 153.757812 121.78125 135.285156 134.445312 135.285156 134.445312 C 128.605469 134.445312 110.992188 127.796875 110.992188 127.796875 C 112.148438 122.601562 116.625 113.078125 116.625 113.078125 C 116.625 113.078125 104.273438 111.058594 98.304688 107.546875 C 88.9375 101.347656 81.996094 91.371094 81.996094 91.371094 C 86.359375 89.09375 93.003906 86.140625 93.003906 86.140625 " fill-opacity="1" fill-rule="nonzero"/><path fill="rgb(96.859741%, 48.629761%, 27.449036%)" d="M 116.625 113.113281 C 116.625 113.113281 115.507812 112.925781 113.828125 112.589844 C 115.542969 109.789062 118.15625 105.679688 118.753906 105.867188 C 119.648438 106.089844 118.269531 109.078125 116.625 113.113281 Z M 113.601562 108.59375 C 113.34375 107.585938 113.082031 106.539062 112.855469 105.53125 C 112.746094 105.042969 112.59375 104.523438 112.410156 104.035156 C 112.371094 103.960938 112.335938 103.847656 112.222656 103.8125 C 112 103.738281 111.886719 104.074219 111.925781 104.261719 C 112 106.128906 112.484375 108.070312 113.417969 109.675781 C 114.199219 111.132812 113.753906 109.117188 113.601562 108.59375 Z M 113.601562 108.59375 " fill-opacity="1" fill-rule="nonzero"/><path fill="rgb(50.979614%, 68.629456%, 65.098572%)" d="M 59.304688 124.136719 L 60.6875 126.300781 C 60.6875 126.300781 56.355469 129.925781 55.015625 130.671875 C 53.671875 131.417969 47.289062 131.792969 47.289062 131.792969 L 46.578125 131.792969 C 45.050781 131.757812 43.820312 130.523438 43.820312 128.992188 L 43.820312 124.734375 L 46.46875 124.695312 L 52.253906 123.460938 C 54.789062 123.539062 59.304688 124.136719 59.304688 124.136719 Z M 174.171875 147.222656 C 174.246094 147.632812 175.589844 148.15625 175.589844 148.15625 C 175.589844 148.15625 174.691406 149.238281 174.878906 150.0625 C 174.394531 151.21875 172.191406 151.816406 172.753906 155.21875 C 172.753906 155.21875 177.304688 157.871094 182.789062 155.589844 C 184.246094 154.917969 187.457031 151.40625 186.933594 144.234375 C 186.375 137.0625 181.671875 130.335938 181.671875 130.335938 C 177.417969 130.484375 174.582031 133.625 171.746094 135.492188 C 168.910156 137.359375 172.9375 146.363281 174.171875 147.222656 Z M 109.273438 52.554688 C 97.929688 52.070312 95.914062 54.160156 95.914062 54.160156 L 88.078125 59.542969 L 91.0625 72.316406 L 93.003906 81.992188 L 89.945312 91.707031 L 98.75 99.402344 L 104.050781 97.796875 L 106.660156 92.53125 C 106.660156 92.53125 110.429688 93.5 112.558594 93.238281 C 112.558594 93.238281 113.417969 97.050781 118.304688 97.683594 C 123.230469 98.320312 139.875 92.53125 144.390625 78.96875 C 136.40625 67.984375 123.867188 53.378906 109.273438 52.554688 Z M 109.273438 52.554688 " fill-opacity="1" fill-rule="nonzero"/><path fill="rgb(100%, 83.139038%, 59.21936%)" d="M 174.171875 147.222656 C 174.171875 147.222656 170.625 148.082031 165.363281 149.238281 C 165.25 144.757812 164.839844 140.3125 164.207031 135.867188 C 167.304688 136.050781 169.953125 135.976562 171.746094 135.492188 C 171.707031 138.480469 176.371094 138.816406 176.632812 140.683594 C 176.855469 142.515625 174.171875 144.792969 174.171875 147.222656 Z M 109.3125 128.542969 C 108.902344 129.179688 108.414062 129.777344 107.929688 130.335938 C 105.804688 132.765625 103.117188 134.59375 100.28125 136.128906 C 99.347656 136.648438 98.378906 137.136719 97.371094 137.359375 C 100.019531 140.125 102.035156 142.253906 102.742188 143.375 C 103.824219 144.160156 104.984375 142.890625 106.660156 145.355469 C 107.707031 146.289062 110.171875 144.382812 110.171875 144.382812 C 109.347656 140.648438 109.421875 136.015625 110.429688 130.523438 C 110.058594 129.886719 109.683594 129.253906 109.3125 128.542969 Z M 39.304688 150.210938 C 38.890625 149.425781 39.75 141.320312 40.125 135.941406 C 40.496094 130.597656 38.109375 126.226562 38.109375 126.226562 C 42.398438 121.558594 36.765625 114.871094 36.316406 114.121094 C 35.871094 113.375 31.578125 113.226562 31.578125 113.226562 C 30.347656 113.039062 29.113281 113.339844 28.109375 113.785156 C 26.839844 114.308594 20.605469 119.875 20.867188 121.96875 C 21.015625 123.238281 21.390625 124.546875 22.136719 125.816406 C 21.316406 126.5625 21.839844 127.421875 21.839844 127.421875 C 20.234375 130.074219 13.292969 133.324219 11.835938 141.695312 C 11.835938 141.695312 8.925781 143.488281 9.039062 149.351562 C 5.566406 149.578125 7.023438 151.332031 10.71875 152.414062 C 10.71875 152.414062 19.710938 156.039062 23.03125 155.925781 C 26.355469 155.816406 27.210938 153.761719 27.210938 153.761719 C 27.210938 153.761719 27.4375 155.441406 27.957031 155.890625 C 29.9375 157.683594 33.78125 156.523438 33.855469 155.890625 C 33.929688 153.871094 32.660156 152.976562 32.136719 152.601562 C 31.617188 152.230469 31.578125 150.585938 31.578125 150.585938 C 33.257812 150.175781 34.375 148.082031 34.375 148.082031 C 34.375 148.082031 34.710938 151.742188 34.75 152.378906 C 34.789062 153.011719 36.503906 154.621094 38.371094 154.882812 C 40.199219 155.144531 41.804688 153.871094 41.839844 153.089844 C 41.503906 150.996094 39.714844 151.035156 39.304688 150.210938 Z M 39.304688 150.210938 " fill-opacity="1" fill-rule="nonzero"/><path fill="rgb(100%, 64.309692%, 44.309998%)" d="M 174.171875 147.222656 C 174.171875 147.222656 173.835938 147.296875 173.273438 147.445312 C 173.125 146.773438 173.238281 146.101562 173.386719 145.390625 C 172.902344 145.464844 172.417969 145.542969 171.929688 145.578125 C 170.4375 145.765625 168.945312 145.878906 167.453125 145.804688 C 168.011719 145.390625 168.722656 145.242188 169.394531 145.128906 C 170.699219 145.128906 172.082031 144.71875 173.386719 144.609375 C 173.460938 144.609375 173.535156 144.609375 173.609375 144.570312 C 173.871094 143.710938 174.097656 142.8125 174.019531 141.992188 C 172.007812 142.179688 169.992188 142.402344 168.011719 142.589844 C 167.640625 142.628906 167.265625 142.664062 166.96875 142.441406 C 167.339844 141.953125 168.011719 141.804688 168.609375 141.695312 C 170.328125 141.433594 172.082031 141.246094 173.796875 141.097656 C 173.460938 140.3125 172.828125 139.675781 172.417969 138.929688 C 170.511719 139.117188 168.609375 139.191406 166.707031 139.117188 C 166.667969 138.78125 167.078125 138.59375 167.453125 138.519531 C 168.984375 138.257812 170.476562 138.070312 172.007812 137.921875 C 171.820312 137.246094 171.78125 136.574219 171.78125 135.867188 C 172.15625 138.480469 176.371094 138.890625 176.632812 140.648438 C 176.855469 142.515625 174.171875 144.792969 174.171875 147.222656 Z M 110.171875 144.421875 C 110.058594 143.824219 109.945312 143.1875 109.871094 142.554688 C 109.722656 142.628906 109.609375 142.703125 109.460938 142.777344 C 109.421875 142.8125 109.347656 142.8125 109.3125 142.851562 C 108.566406 141.28125 107.855469 139.75 107.109375 138.183594 C 106.699219 137.324219 106.175781 136.351562 105.28125 136.128906 C 105.355469 136.984375 105.914062 137.734375 106.402344 138.441406 C 107.371094 139.863281 108.117188 141.433594 108.828125 143 C 108.042969 143.152344 107.371094 142.925781 106.625 142.777344 C 105.65625 141.171875 104.722656 139.527344 103.453125 138.105469 C 103.191406 137.808594 102.707031 137.507812 102.40625 137.769531 C 103.230469 139.453125 104.125 141.058594 105.167969 142.589844 C 105.207031 142.664062 105.242188 142.703125 105.28125 142.777344 C 105.207031 142.777344 105.132812 142.8125 105.058594 142.8125 C 104.347656 143.039062 103.640625 143.226562 103.003906 143.523438 C 104.011719 143.972656 105.132812 143.074219 106.660156 145.355469 C 107.707031 146.289062 110.171875 144.421875 110.171875 144.421875 Z M 107.222656 133.4375 C 107.484375 135.417969 108.566406 137.136719 109.609375 138.855469 C 109.609375 138.105469 109.609375 137.359375 109.683594 136.574219 C 109.199219 135.640625 108.675781 134.746094 108.15625 133.847656 C 107.929688 133.511719 107.519531 133.175781 107.222656 133.4375 Z M 71.882812 60.847656 C 72.292969 61 73.5625 62.15625 75.128906 63.203125 C 77.253906 64.546875 80.875 65.59375 82.703125 62.195312 C 83.824219 61.484375 86.996094 62.417969 88.003906 63.054688 C 88.5625 63.425781 91.027344 72.316406 91.027344 72.316406 C 94.199219 71.421875 94.234375 66.042969 94.347656 61.78125 C 94.460938 57.5625 95.878906 54.160156 95.878906 54.160156 C 95.878906 54.160156 92.445312 54.160156 91.210938 54.085938 C 90.019531 53.976562 87.070312 50.835938 87.070312 50.835938 C 89.71875 47.699219 85.949219 42.058594 83.039062 44.039062 C 80.089844 46.019531 70.089844 52.367188 63.96875 49.191406 C 63.820312 50.984375 68.558594 56.214844 68.894531 57.859375 C 69.308594 59.464844 69.195312 62.417969 71.882812 60.847656 Z M 20.121094 129.289062 C 20.867188 128.617188 21.464844 128.019531 21.839844 127.421875 C 22.136719 128.503906 23.367188 129.738281 22.882812 129.960938 C 22.585938 130.113281 21.316406 129.925781 20.121094 129.289062 Z M 21.6875 126.375 C 21.761719 126.191406 21.875 126.003906 22.0625 125.816406 C 22.0625 125.070312 25.71875 127.050781 25.644531 127.570312 C 25.605469 127.945312 23.257812 127.421875 21.6875 126.375 Z M 34.078125 128.429688 C 34.265625 127.984375 37.101562 127.273438 38.109375 126.265625 C 38.109375 126.265625 38.445312 126.898438 38.855469 127.984375 C 36.726562 128.765625 33.929688 128.804688 34.078125 128.429688 Z M 27.4375 154.957031 C 27.285156 154.394531 27.210938 153.835938 27.210938 153.835938 C 27.210938 153.835938 27.136719 153.984375 27.023438 154.171875 C 26.914062 151.144531 22.285156 150.695312 20.71875 150.773438 C 19 150.847656 20.421875 149.203125 23.703125 149.277344 C 21.578125 141.617188 14.074219 141.097656 11.835938 141.730469 C 11.875 141.507812 11.910156 141.28125 11.949219 141.058594 C 12.171875 141.019531 12.507812 141.019531 12.882812 140.984375 C 15.867188 140.871094 23.777344 141.730469 25.347656 149.988281 C 24.597656 144.121094 27.0625 140.722656 26.652344 142.515625 C 26.019531 147.933594 27.4375 154.957031 27.4375 154.957031 Z M 31.578125 150.621094 C 31.464844 146.402344 31.800781 143.972656 32.136719 143.636719 C 32.4375 143.375 32.285156 148.121094 32.546875 150.175781 C 32.25 150.398438 31.914062 150.546875 31.578125 150.621094 Z M 34.488281 149.578125 C 34.414062 148.753906 34.375 148.121094 34.375 148.121094 C 35.125 146.738281 35.234375 143.824219 35.496094 143.261719 C 35.757812 142.738281 36.132812 146.886719 34.488281 149.578125 Z M 31.578125 156.5625 C 31.578125 156.636719 31.617188 156.75 31.617188 156.824219 C 31.429688 156.859375 31.203125 156.859375 31.019531 156.859375 C 31.019531 156.636719 31.019531 156.375 31.019531 156.152344 C 31.019531 155.851562 31.019531 155.515625 31.28125 155.367188 C 31.464844 155.742188 31.539062 156.1875 31.578125 156.5625 Z M 32.847656 155.292969 C 32.996094 155.664062 33.109375 156.039062 33.183594 156.414062 C 32.957031 156.488281 32.734375 156.601562 32.4375 156.675781 C 32.398438 156.339844 32.398438 156.003906 32.4375 155.664062 C 32.4375 155.480469 32.472656 155.292969 32.621094 155.179688 C 32.660156 155.179688 32.699219 155.144531 32.734375 155.144531 C 32.808594 155.21875 32.808594 155.253906 32.847656 155.292969 Z M 39.824219 154.804688 C 39.898438 154.804688 40.011719 154.769531 40.085938 154.769531 C 39.640625 154.917969 39.152344 154.992188 38.667969 154.992188 C 38.632812 154.394531 38.667969 153.386719 39.078125 153.425781 C 39.152344 153.425781 39.226562 153.460938 39.304688 153.535156 C 39.640625 153.796875 39.75 154.320312 39.824219 154.804688 Z M 40.871094 152.714844 C 40.945312 153.199219 41.019531 153.722656 41.09375 154.207031 C 40.90625 154.359375 40.722656 154.46875 40.460938 154.582031 C 40.347656 153.910156 40.308594 153.238281 40.347656 152.566406 C 40.347656 152.414062 40.386719 152.265625 40.496094 152.230469 C 40.535156 152.230469 40.609375 152.230469 40.644531 152.265625 C 40.796875 152.339844 40.871094 152.527344 40.871094 152.714844 Z M 24.523438 154.097656 C 24.75 154.582031 24.898438 155.105469 24.972656 155.628906 C 24.675781 155.742188 24.339844 155.816406 23.964844 155.890625 C 23.890625 155.328125 23.929688 154.769531 24.003906 154.246094 C 24.039062 154.097656 24.113281 153.871094 24.265625 153.910156 C 24.375 153.871094 24.449219 153.984375 24.523438 154.097656 Z M 26.390625 154.507812 C 26.390625 154.621094 26.390625 154.695312 26.390625 154.804688 C 26.242188 154.957031 26.054688 155.066406 25.832031 155.21875 C 25.757812 154.804688 25.683594 154.359375 25.644531 153.945312 C 25.644531 153.722656 25.644531 153.460938 25.757812 153.238281 C 25.792969 153.164062 25.832031 153.125 25.90625 153.125 C 26.019531 153.125 26.09375 153.199219 26.128906 153.273438 C 26.355469 153.609375 26.390625 154.097656 26.390625 154.507812 Z M 104.050781 97.796875 C 99.421875 106.238281 92.292969 114.160156 69.679688 126.972656 C 67.964844 128.167969 65.539062 131.832031 64.230469 132.875 C 62.925781 133.921875 59.417969 135.15625 58.109375 134.746094 C 58.109375 134.746094 55.460938 135.304688 53.597656 133.847656 C 53.597656 133.847656 51.917969 133.886719 50.125 132.652344 C 50.125 132.652344 48.296875 132.839844 47.289062 131.832031 C 47.511719 131.757812 52.925781 129.738281 55.015625 128.167969 C 57.105469 126.601562 56.355469 124.84375 56.355469 124.84375 L 53 124.621094 C 53 124.621094 55.683594 121.96875 57.441406 121.519531 C 59.195312 121.035156 63.296875 120.210938 65.128906 119.351562 C 66.917969 118.457031 81.695312 100.972656 87.292969 99.105469 C 87.292969 99.105469 89.046875 93.3125 89.90625 91.746094 C 89.945312 91.707031 95.691406 95.667969 104.050781 97.796875 Z M 104.050781 97.796875 " fill-opacity="1" fill-rule="nonzero"/><path fill="rgb(96.859741%, 48.629761%, 27.449036%)" d="M 175.589844 148.15625 C 175.589844 148.15625 175.363281 148.082031 175.066406 147.933594 C 175.066406 147.933594 176.296875 145.28125 178.125 144.683594 C 179.359375 144.421875 176.261719 146.921875 175.589844 148.15625 Z M 175.066406 150.136719 C 175.066406 150.136719 180.03125 148.605469 179.097656 148.15625 C 178.199219 147.707031 174.917969 149.464844 174.878906 149.464844 C 174.84375 149.652344 174.804688 149.875 174.84375 150.023438 C 174.804688 150.0625 174.804688 150.136719 174.765625 150.175781 Z M 75.574219 59.617188 C 75.574219 60.175781 75.574219 60.738281 75.425781 61.296875 C 75.277344 61.859375 75.054688 62.378906 74.644531 62.753906 C 74.644531 62.753906 74.605469 62.792969 74.570312 62.828125 C 74.753906 62.941406 74.941406 63.054688 75.128906 63.164062 C 76.84375 61.335938 75.539062 59.128906 75.574219 59.617188 Z M 85.203125 45.757812 C 85.167969 45.832031 85.09375 45.867188 85.054688 45.941406 C 84.941406 46.128906 85.054688 46.390625 85.203125 46.539062 C 85.390625 46.691406 85.578125 46.800781 85.765625 46.953125 C 85.988281 47.136719 86.0625 47.4375 86.101562 47.734375 C 86.136719 48.035156 86.023438 48.296875 85.914062 48.59375 C 85.875 48.671875 85.839844 48.78125 85.765625 48.820312 C 85.6875 48.894531 85.578125 48.894531 85.503906 48.855469 C 85.429688 48.820312 85.390625 48.707031 85.464844 48.632812 C 85.539062 48.332031 85.578125 48.035156 85.578125 47.734375 C 85.578125 47.550781 85.539062 47.363281 85.390625 47.25 C 85.09375 46.988281 84.570312 47.214844 84.347656 46.914062 C 84.269531 46.800781 84.269531 46.652344 84.269531 46.503906 C 84.308594 46.242188 84.347656 45.980469 84.496094 45.757812 C 84.644531 45.53125 84.867188 45.417969 85.09375 45.34375 C 85.242188 45.382812 85.277344 45.605469 85.203125 45.757812 Z M 71.621094 60.289062 C 71.621094 60.175781 71.84375 60.101562 71.917969 60.101562 C 71.992188 60.101562 72.066406 60.140625 72.144531 60.175781 C 72.179688 60.214844 72.21875 60.324219 72.179688 60.402344 C 72.144531 60.476562 72.066406 60.476562 71.992188 60.476562 C 71.882812 60.476562 71.65625 60.402344 71.621094 60.289062 Z M 146.890625 81.582031 C 137.972656 98.355469 124.3125 98.394531 118.863281 97.648438 C 124.351562 97.835938 140.0625 92.007812 144.390625 78.894531 C 145.101562 79.601562 145.957031 80.5 146.890625 81.582031 Z M 116.550781 97.199219 C 116.515625 97.199219 116.515625 97.199219 116.515625 97.199219 C 116.515625 97.199219 116.550781 97.199219 116.550781 97.199219 Z M 82.742188 62.15625 C 84.011719 60.289062 84.160156 58.457031 84.867188 57.933594 C 85.390625 57.5625 85.949219 60.101562 85.988281 62.195312 C 84.757812 61.894531 83.414062 61.746094 82.742188 62.15625 Z M 89.945312 91.707031 C 89.945312 91.707031 95.691406 95.667969 104.050781 97.796875 C 103.902344 98.097656 103.75 98.355469 103.566406 98.65625 C 99.871094 97.796875 92.144531 95.78125 89.195312 93.386719 C 89.496094 92.679688 89.757812 92.082031 89.945312 91.707031 Z M 92.292969 101.308594 C 92.628906 102.617188 89.792969 100.375 87.144531 99.105469 C 87.183594 99.066406 87.257812 99.066406 87.292969 99.03125 C 87.292969 99.03125 87.59375 98.019531 88.039062 96.714844 C 89.757812 97.683594 91.699219 99.179688 92.292969 101.308594 Z M 58.859375 134.820312 C 58.558594 134.820312 58.296875 134.820312 58.109375 134.746094 C 58.109375 134.746094 57.589844 134.855469 56.804688 134.855469 L 56.992188 134.746094 C 56.992188 134.746094 60.460938 133.699219 61.507812 132.875 C 62.140625 132.390625 62.8125 133.363281 58.859375 134.820312 Z M 50.945312 133.136719 C 50.683594 132.988281 50.421875 132.839844 50.164062 132.652344 C 53.78125 132.429688 56.617188 129.851562 57.140625 130.113281 C 57.589844 130.335938 54.9375 132.054688 50.945312 133.136719 Z M 54.082031 134.148438 C 53.929688 134.035156 53.746094 133.960938 53.597656 133.847656 C 53.597656 133.847656 57.625 132.503906 58.894531 131.605469 C 59.714844 131.160156 59.902344 132.429688 54.082031 134.148438 Z M 46.242188 124.695312 C 46.394531 124.546875 46.578125 124.394531 46.730469 124.320312 C 47.140625 124.097656 47.664062 124.058594 47.996094 123.722656 C 48.109375 123.574219 48.222656 123.425781 48.332031 123.277344 C 48.519531 123.089844 48.78125 122.976562 49.042969 122.863281 C 49.417969 122.640625 49.675781 122.339844 50.011719 122.082031 C 50.347656 121.820312 50.796875 121.632812 51.207031 121.742188 C 51.65625 121.855469 51.953125 122.339844 52.363281 122.527344 C 52.886719 122.753906 53.558594 122.566406 54.007812 122.9375 C 54.117188 123.050781 54.230469 123.164062 54.34375 123.277344 C 54.566406 123.5 54.902344 123.574219 55.199219 123.6875 C 55.5 123.796875 55.984375 124.621094 56.246094 124.808594 C 55.089844 124.882812 53.96875 124.546875 53 124.582031 Z M 25.832031 115.132812 C 25.90625 115.058594 26.839844 114.347656 28.109375 113.785156 C 28.109375 113.9375 28.144531 114.085938 28.144531 114.234375 C 28.144531 115.132812 27.734375 115.992188 27.175781 116.699219 C 26.875 117.074219 26.503906 117.449219 26.316406 117.894531 C 26.203125 118.15625 26.167969 118.417969 26.09375 118.679688 C 25.792969 119.949219 25.011719 121.109375 23.929688 121.855469 C 23.441406 122.191406 22.921875 122.453125 22.324219 122.453125 C 21.914062 122.453125 21.503906 122.339844 21.128906 122.191406 C 21.054688 122.15625 20.941406 122.117188 20.867188 122.082031 C 20.570312 119.914062 20.832031 117.933594 20.644531 116.773438 C 20.34375 114.945312 18.703125 112.664062 20.007812 111.132812 C 21.277344 109.640625 25.832031 115.132812 25.832031 115.132812 Z M 0.417969 144.160156 C 0.0429688 141.320312 2.695312 133.363281 0.679688 131.121094 C 1.984375 129.738281 4.335938 131.417969 4.1875 134.371094 C 4.039062 137.359375 0.492188 147.445312 9 149.390625 C 9 149.390625 9.039062 151.144531 10.679688 152.453125 C 2.695312 151.070312 0.789062 146.960938 0.417969 144.160156 Z M 34.527344 114.347656 C 33.78125 114.199219 33.035156 114.382812 32.285156 114.234375 C 31.539062 114.121094 31.203125 113.675781 30.867188 113.1875 C 31.09375 113.1875 31.316406 113.1875 31.539062 113.226562 C 31.539062 113.226562 32.472656 107.734375 33.519531 107.359375 C 34.5625 106.949219 35.832031 113.414062 36.28125 114.121094 C 36.390625 114.273438 36.691406 114.683594 37.101562 115.28125 C 36.242188 115.09375 35.421875 114.535156 34.527344 114.347656 Z M 34.527344 114.347656 " fill-opacity="1" fill-rule="nonzero"/><path fill="rgb(26.269531%, 15.289307%, 5.879211%)" d="M 71.433594 53.378906 C 71.582031 53.453125 71.695312 53.527344 71.84375 53.675781 C 72.367188 54.160156 72.515625 54.835938 72.179688 55.207031 C 71.84375 55.582031 71.171875 55.46875 70.648438 54.984375 C 70.539062 54.871094 70.425781 54.757812 70.351562 54.648438 C 70.164062 55.320312 70.464844 55.878906 70.277344 55.730469 C 69.941406 55.433594 69.828125 54.535156 69.976562 54.011719 C 70.203125 53.265625 70.613281 52.855469 71.097656 52.628906 C 72.03125 52.183594 72.253906 51.808594 72.21875 51.546875 C 73.074219 52.367188 72.292969 52.78125 71.433594 53.378906 Z M 71.917969 50.386719 C 71.992188 50.277344 70.3125 49.941406 69.566406 50.386719 C 68.785156 50.835938 66.882812 52.667969 67.179688 52.964844 C 67.328125 53.152344 68.074219 53.152344 68.410156 53.003906 C 68.710938 52.855469 70.390625 51.097656 70.726562 50.875 C 71.0625 50.6875 71.84375 50.539062 71.917969 50.386719 Z M 91.808594 75.980469 L 93.039062 81.992188 C 93.039062 81.992188 94.421875 71.535156 94.125 70.710938 C 93.9375 70.261719 92.816406 73.214844 91.808594 75.980469 Z M 120.582031 90.886719 C 119.722656 90.847656 115.171875 93.425781 112.558594 93.203125 C 112.558594 93.203125 112.820312 94.433594 113.976562 95.59375 C 118.042969 94.507812 121.367188 90.921875 120.582031 90.886719 Z M 110.171875 84.273438 C 109.199219 84.984375 107.667969 90.363281 106.660156 92.492188 C 106.660156 92.492188 107.707031 92.753906 109.011719 92.976562 C 109.648438 90.0625 110.953125 83.710938 110.171875 84.273438 Z M 34.601562 118.046875 C 34.636719 118.007812 34.710938 117.96875 34.75 117.933594 C 35.085938 117.558594 35.460938 117.222656 35.945312 117 C 36.054688 116.960938 36.132812 116.925781 36.207031 116.851562 C 36.28125 116.8125 36.316406 116.738281 36.355469 116.664062 C 36.429688 116.589844 36.464844 116.476562 36.429688 116.363281 C 36.355469 115.953125 35.535156 116.664062 35.382812 116.773438 C 35.011719 117.074219 34.601562 117.410156 34.453125 117.859375 C 34.453125 117.894531 34.414062 117.933594 34.453125 118.007812 C 34.488281 118.046875 34.527344 118.046875 34.601562 118.046875 Z M 31.019531 118.90625 C 30.421875 118.90625 29.824219 118.941406 29.265625 119.128906 C 29.113281 119.203125 28.855469 119.277344 28.742188 119.425781 C 28.554688 119.765625 28.929688 119.800781 29.113281 119.726562 C 29.675781 119.503906 30.273438 119.425781 30.90625 119.390625 C 31.019531 119.390625 31.09375 119.390625 31.167969 119.351562 C 31.242188 119.316406 31.28125 119.089844 31.242188 119.015625 C 31.203125 118.90625 31.09375 118.90625 31.019531 118.90625 Z M 37.734375 122.976562 C 37.660156 122.976562 37.625 123.015625 37.550781 123.015625 C 37.0625 123.199219 36.503906 123.238281 36.019531 123.089844 C 35.871094 123.050781 35.609375 122.902344 35.421875 122.902344 C 35.460938 122.304688 35.382812 121.667969 35.199219 121.109375 C 35.535156 120.773438 35.460938 119.800781 35.234375 119.613281 C 35.011719 119.425781 33.183594 120.25 33.144531 120.625 C 33.109375 120.960938 34.226562 121.332031 34.863281 121.222656 C 34.972656 121.59375 35.011719 122.003906 35.011719 122.378906 C 35.011719 122.828125 35.011719 123.277344 34.898438 123.6875 C 34.636719 124.621094 33.816406 125.292969 32.921875 125.667969 C 32.847656 125.703125 32.773438 125.703125 32.734375 125.777344 C 32.699219 125.816406 32.660156 125.929688 32.734375 125.964844 C 32.773438 126.003906 32.808594 126.003906 32.808594 126.003906 C 33.070312 126.039062 33.332031 125.964844 33.59375 125.851562 C 34.414062 125.480469 35.046875 124.769531 35.273438 123.910156 C 35.308594 123.722656 35.347656 123.539062 35.382812 123.351562 C 35.644531 123.539062 35.980469 123.613281 36.316406 123.613281 C 36.652344 123.613281 36.988281 123.539062 37.324219 123.425781 C 37.472656 123.386719 37.660156 123.3125 37.773438 123.199219 C 37.808594 123.164062 37.808594 123.125 37.808594 123.089844 C 37.847656 123.015625 37.773438 122.976562 37.734375 122.976562 Z M 37.734375 122.976562 " fill-opacity="1" fill-rule="nonzero"/></svg>