<?xml version="1.0" encoding="utf-8"?>
<!-- Generator: Adobe Illustrator 24.1.2, SVG Export Plug-In . SVG Version: 6.00 Build 0)  -->
<svg version="1.1" id="Warstwa_3" xmlns="http://www.w3.org/2000/svg" xmlns:xlink="http://www.w3.org/1999/xlink" x="0px" y="0px"
	 viewBox="0 0 430 430" style="enable-background:new 0 0 430 430;" xml:space="preserve">
<style type="text/css">
	.st0{fill:#08a88a;}
	.st1{fill:#121331;}
	.st2{fill:none;}
	.st3{fill:#08a88a;fill-opacity:0;}
</style>
<g>
	<path class="st1" d="M219.93,337.06c-3.84,0-8.28-0.56-13.39-1.96c-35.9-9.83-122.28-97.49-125.94-101.22
		c-2.44-2.48-2.4-6.47,0.08-8.91c2.48-2.44,6.47-2.4,8.91,0.08c24.27,24.71,93.19,90.47,120.28,97.89
		c7.49,2.05,12.51,1.73,15.71,0.83c-7.18-6.63-16.27-16.95-29.73-32.23c-5.17-5.86-11.02-12.51-17.62-19.91
		c-2.32-2.6-2.09-6.58,0.51-8.9c2.6-2.32,6.58-2.09,8.89,0.51c6.62,7.43,12.49,14.09,17.66,19.96
		c15.97,18.13,25.61,29.08,32.58,34.52c6.19,4.84,8.51,4.01,11.78,2.25c4.22-2.27,8.34-6.67,11.43-10.88
		c-7.2-6.62-16.32-16.98-29.85-32.34c-5.16-5.86-11.02-12.51-17.61-19.91c-2.32-2.6-2.09-6.58,0.51-8.9
		c2.59-2.32,6.58-2.09,8.89,0.51c6.62,7.43,12.49,14.09,17.66,19.96c15.21,17.27,24.68,28.02,31.57,33.71
		c0.14,0.07,0.29,0.15,0.43,0.23c0.63,0.37,1.18,0.84,1.63,1.37c5.42,3.95,7.65,3.11,10.73,1.46c3.74-2.02,7.4-5.7,10.33-9.43
		c-0.66-0.46-1.32-0.95-1.99-1.48c-7.88-6.17-17.81-17.44-34.26-36.11c-5.17-5.86-11.02-12.51-17.62-19.92
		c-2.32-2.6-2.09-6.58,0.51-8.9c2.6-2.32,6.58-2.09,8.89,0.51c6.63,7.43,12.49,14.1,17.67,19.97
		c15.97,18.13,25.61,29.07,32.57,34.52c1.32,1.03,2.46,1.81,3.48,2.37c1.17-0.05,2.36,0.23,3.45,0.87c0.21,0.12,0.4,0.25,0.59,0.39
		c1.52,0.02,2.8-0.59,4.26-1.38c1.09-0.65,4.97-3.92,5.8-4.9c3.83-4.59,2.73-10.63-0.47-15.82c-0.18-0.24-0.34-0.5-0.49-0.76
		c-1.16-1.73-2.54-3.36-4.04-4.78c-17.9-16.98-58.01-52.77-82.74-73.49c-9.6,8.31-32.87,26.5-52.59,26.5
		c-0.67,0-1.33-0.02-1.99-0.06c-12.47-0.81-18.66-6.99-21.66-12.04c-5.88-9.89-4.25-23.51-0.04-32.62
		c2.96-6.4,12.35-18.64,24.11-29.69h-66.2c-3.48,0-6.3-2.82-6.3-6.3s2.82-6.3,6.3-6.3h81.72c8.75-5.96,17.82-10.06,25.96-10.17
		c0.22,0,0.44,0,0.66,0c22.62,0,87.36,14.63,90.13,15.26c3.39,0.77,5.52,4.15,4.75,7.54c-0.77,3.39-4.14,5.52-7.54,4.75
		c-0.67-0.15-67.31-15.2-87.83-14.95c-17.29,0.23-48.7,32.97-54.33,45.14c-2.82,6.1-3.92,15.24-0.56,20.89
		c2.14,3.6,5.95,5.54,11.64,5.9c16.07,1.05,41.02-18.97,49.27-26.77c2.31-2.19,5.89-2.31,8.34-0.28
		c24.31,20.09,68.47,59.42,87.56,77.53c0.67,0.64,1.32,1.3,1.95,1.98l18.42-14.83c2.71-2.18,6.67-1.75,8.86,0.96
		c2.18,2.71,1.75,6.68-0.96,8.86l-19.42,15.63c3.66,8.55,3.64,18.19-2.86,25.97c-1.72,2.06-7.02,6.59-9.5,7.93
		c-3.96,2.13-7.69,3.09-11.42,2.86c-3.33,4.72-9.18,11.81-16.46,15.73c-6.9,3.72-13.09,3.88-19.85,0.32
		c-3.44,4.65-8.89,10.87-15.54,14.45c-6.5,3.5-12.38,3.85-18.68,0.9C233.64,334.46,228.18,337.06,219.93,337.06z"/>
	<path class="st0" d="M400.13,255.68h-49.96c-2.65,0-5.02-1.66-5.92-4.16l-43.51-120.2c-0.75-2.08-0.36-4.4,1.03-6.12
		c0.67-0.83,16.9-20.37,54.26-28.89c21.52-4.91,43.7-3.1,44.63-3.02c3.26,0.28,5.77,3,5.77,6.28v149.81
		C406.43,252.86,403.61,255.68,400.13,255.68z M354.6,243.08h39.24v-137.5c-7.62-0.2-21.64-0.02-35,3.03
		c-25.53,5.82-39.69,17.13-44.92,22.1L354.6,243.08z M79.82,255.68H29.87c-3.48,0-6.3-2.82-6.3-6.3V99.58
		c0-3.38,2.67-6.16,6.04-6.29c0.91-0.03,22.62-0.87,44.07,2.98c31.52,5.67,44.38,13.51,44.91,13.84c2.35,1.46,3.47,4.29,2.76,6.96
		L85.91,251C85.18,253.76,82.68,255.68,79.82,255.68z M36.17,243.08h38.81l32.88-124.27c-5.58-2.44-17.17-6.69-36.41-10.15
		c-13.57-2.44-27.56-2.86-35.28-2.88V243.08z"/>
	<path class="st2" d="M78.37,137.61c0,5.78-4.68,10.46-10.46,10.46c-5.77,0-10.46-4.68-10.46-10.46c0-5.77,4.68-10.46,10.46-10.46
		C73.69,127.16,78.37,131.84,78.37,137.61z M351.63,137.61c0,5.78,4.68,10.46,10.46,10.46s10.46-4.68,10.46-10.46
		c0-5.77-4.68-10.46-10.46-10.46S351.63,131.84,351.63,137.61z"/>
</g>
</svg>
