<?xml version="1.0" encoding="utf-8"?>
<!-- Generator: Adobe Illustrator 24.1.2, SVG Export Plug-In . SVG Version: 6.00 Build 0)  -->
<svg version="1.1" id="Warstwa_3" xmlns="http://www.w3.org/2000/svg" xmlns:xlink="http://www.w3.org/1999/xlink" x="0px" y="0px"
	 viewBox="0 0 430 430" style="enable-background:new 0 0 430 430;" xml:space="preserve">
<style type="text/css">
	.st0{fill:#08A385;}
	.st1{fill:#121331;}
	.st2{fill:none;stroke:#08A385;stroke-width:12;stroke-linecap:round;stroke-linejoin:round;stroke-miterlimit:10;}
	.st3{fill:none;stroke:#121331;stroke-width:12;stroke-linecap:round;stroke-linejoin:round;stroke-miterlimit:10;}
</style>
<g>
	<g>
		<path class="st0" d="M333.86,190.3c-8.58,0-16.56-1.19-23.3-3.41c-3.15-1.04-4.86-4.43-3.83-7.57c1.03-3.15,4.42-4.86,7.57-3.83
			c19,6.25,51.36,2.56,73.92-16.57c2.53-2.14,6.31-1.83,8.46,0.7c2.14,2.53,1.83,6.31-0.7,8.46
			C377.62,183.65,354.09,190.3,333.86,190.3z"/>
		<path class="st1" d="M376,368.18c-2.07,0-4.09-1.07-5.2-3c-10.41-18-24.52-67.1-28.42-81.04l-151.17-27.61
			c-2.48-0.45-4.41-2.41-4.84-4.89l-6.88-40.28c-0.33-1.93,0.3-3.89,1.69-5.27s3.36-1.99,5.29-1.65l112.35,20.17
			c3.26,0.59,5.43,3.7,4.84,6.97c-0.58,3.26-3.7,5.43-6.97,4.85l-103.94-18.66l4.73,27.72l150.75,27.53
			c2.27,0.42,4.11,2.1,4.71,4.33c0.17,0.62,17.08,62.55,28.24,81.83c1.66,2.87,0.68,6.54-2.19,8.2
			C378.05,367.92,377.02,368.18,376,368.18z"/>
		<path class="st1" d="M297.75,236.52c-1.05,0-2.11-0.28-3.08-0.85c-2.84-1.7-3.77-5.39-2.06-8.23c8.59-14.34,13.1-28.47,13.4-42
			c0-0.11,0.01-0.22,0.02-0.33l1.65-21.23c-24.26-6.64-39.19-16.9-44.39-30.53c-5.83-15.28,3.08-28.47,3.47-29.02
			c1.06-1.53,2.77-2.49,4.63-2.58c21.09-1.09,31.15-1.45,36.25-1.33c6.47-7.17,14.07-11.11,22.63-11.72
			c11.65-0.83,22.11,4.94,28.05,9.14c9.61-12.16,26.72-32.83,27.55-33.83c1.67-2.02,4.47-2.72,6.9-1.72c2.43,1,3.93,3.46,3.7,6.08
			l-6.48,73.79c1.1,10.28,6.54,19.61,14.97,25.66c2.69,1.93,3.31,5.68,1.38,8.37c-1.93,2.69-5.68,3.31-8.37,1.38
			c-11.4-8.18-18.68-20.87-19.98-34.82c-0.03-0.36-0.03-0.72,0-1.08l4.83-55.05c-6.86,8.39-14.8,18.18-18.72,23.33
			c-1.03,1.36-2.59,2.21-4.29,2.35c-1.7,0.14-3.38-0.46-4.61-1.63c-0.1-0.1-11.73-10.9-24.13-9.98c-6.04,0.45-11.29,3.59-16.06,9.63
			c-1.48,1.87-3.86,2.63-6.05,2.13c-3.1-0.19-18.71,0.4-33.6,1.15c-1.46,3.2-3.3,9.19-0.79,15.63c4.06,10.42,18.21,18.82,40.91,24.3
			c2.86,0.69,4.8,3.36,4.57,6.3L318,185.87c-0.38,15.58-5.46,31.64-15.1,47.73C301.78,235.48,299.79,236.52,297.75,236.52z
			 M306.87,111.5C306.87,111.5,306.87,111.5,306.87,111.5C306.87,111.5,306.87,111.5,306.87,111.5z M306.85,111.49
			c0,0,0.01,0.01,0.01,0.01C306.86,111.49,306.86,111.49,306.85,111.49z"/>
	</g>
	<path class="st1" d="M117.29,205.22c-3.57,0-7.15-0.36-10.69-1.08l-26.7-5.45c-15.02-3.07-51.25-4.68-51.61-4.69
		c-3.21-0.14-5.74-2.78-5.74-5.99v-43.58c0-2.57,1.64-4.86,4.07-5.68c21.39-7.25,43.87-13.27,63.43-8.34
		c4.33,1.09,8.86,1.65,13.46,1.65h32.87c0.11,0,0.22,0,0.33,0.01c6.28,0.35,11.94,3.96,15.53,9.93c1.26,2.09,2.19,4.68,2.83,7.33
		l28.86-15.46c9.48-5.08,21.32-1.5,26.39,7.98c0.08,0.15,0.16,0.31,0.22,0.46l4.16,9.68c1.21,2.81,0.11,6.09-2.56,7.59l-68.67,38.79
		C135.43,202.88,126.4,205.22,117.29,205.22z M34.55,182.29c11.11,0.6,35.42,2.12,47.75,4.64l26.7,5.45
		c9.76,1.99,19.92,0.4,28.6-4.48l63.96-36.13l-1.92-4.46c-2.01-3.5-6.47-4.79-10.04-2.88l-34.9,18.69
		c-0.44,0.73-0.96,1.41-1.58,2.03c-1.95,1.95-4.53,3.03-7.28,3.03h-39.07c-3.31,0-6-2.69-6-6c0-3.31,2.69-6,6-6h37.29
		c-0.25-3.02-1.09-6.35-2.09-8.02c-0.87-1.45-2.77-3.89-5.78-4.12h-32.68c-5.59,0-11.1-0.68-16.39-2.01
		c-12.68-3.2-28.09-1.26-52.57,6.71V182.29z"/>
</g>
</svg>
