<?xml version="1.0" encoding="utf-8"?>
<!-- Generator: Adobe Illustrator 24.1.2, SVG Export Plug-In . SVG Version: 6.00 Build 0)  -->
<svg version="1.1" id="Warstwa_3" xmlns="http://www.w3.org/2000/svg" xmlns:xlink="http://www.w3.org/1999/xlink" x="0px" y="0px"
	 viewBox="0 0 430 430" style="enable-background:new 0 0 430 430;" xml:space="preserve">
<style type="text/css">
	.st0{fill:#08a88a;}
	.st1{fill:#121331;}
	.st2{fill:#08a88a;fill-opacity:0;}
	.st3{fill:none;}
</style>
<g>
	<path class="st1" d="M215.53,352.71c-0.21,0-0.41,0-0.62,0c-43.35-0.14-71.98-14.39-88.36-26.32
		c-18.02-13.13-25.63-26.35-25.95-26.9c-0.54-0.96-0.82-2.04-0.82-3.13l0.4-86.3c0.02-3.47,2.83-6.27,6.3-6.27c0.01,0,0.02,0,0.03,0
		c3.48,0.02,6.29,2.85,6.27,6.33l-0.39,84.46c2.25,3.36,9.21,12.75,22.14,22.04c14.82,10.65,40.8,23.37,80.42,23.5
		c0.2,0,0.4,0,0.6,0c31.05,0,57.44-7.83,78.42-23.26c12.75-9.38,19.55-18.9,21.71-22.25l0.39-84.54c0.02-3.47,2.83-6.27,6.3-6.27
		c0.01,0,0.02,0,0.03,0c3.48,0.02,6.29,2.85,6.27,6.33l-0.4,86.3c0,1.05-0.27,2.07-0.77,2.99c-0.31,0.56-7.74,13.93-25.45,27.14
		C286.02,338.5,258.01,352.71,215.53,352.71z"/>
	<path class="st1" d="M214.51,246.45c-0.71,0-1.43-0.12-2.11-0.36L32.91,182.31c-2.52-0.9-4.21-3.29-4.19-5.97l0.15-27.61
		c-0.1-0.44-0.15-0.89-0.15-1.35c0-2.67,1.68-5.04,4.19-5.94L212.4,77.66c1.36-0.48,2.85-0.48,4.21,0l180.42,63.81
		c0.33,0.12,0.65,0.26,0.95,0.43c0.54,0.29,1.03,0.66,1.47,1.09c1.18,1.18,1.84,2.79,1.84,4.46l-0.03,28.69
		c0,2.66-1.68,5.04-4.19,5.93l-180.45,64.03C215.93,246.33,215.22,246.45,214.51,246.45z M41.34,171.93l173.17,61.53l174.15-61.8
		l0.02-15.38l-172.07,60.8c-1.36,0.48-2.85,0.48-4.21,0L41.42,156.34L41.34,171.93z M53.83,147.37l160.68,57.1l161.51-57.07
		L214.51,90.28L53.83,147.37z"/>
	<path class="st0" d="M292.48,312.02c-3.48,0-6.3-2.82-6.3-6.3v-23.84c0-0.43,0.04-0.85,0.12-1.25c-0.08-0.4-0.12-0.82-0.12-1.25
		V178.79l-72.85-26.49c-3.27-1.19-4.96-4.8-3.77-8.07c1.19-3.27,4.8-4.95,8.07-3.77l77,28c2.49,0.91,4.15,3.27,4.15,5.92v105
		c0,0.43-0.04,0.85-0.12,1.25c0.08,0.4,0.12,0.82,0.12,1.25v23.84C298.78,309.2,295.96,312.02,292.48,312.02z"/>
	<path class="st0" d="M292.48,316.22c-5.8,0-10.5-4.7-10.5-10.5v-23.84c0-5.8,4.7-10.5,10.5-10.5s10.5,4.7,10.5,10.5v23.84
		C302.98,311.52,298.28,316.22,292.48,316.22z"/>
</g>
</svg>
