<?xml version="1.0" encoding="utf-8"?>
<!-- Generator: Adobe Illustrator 24.1.2, SVG Export Plug-In . SVG Version: 6.00 Build 0)  -->
<svg version="1.1" id="Warstwa_3" xmlns="http://www.w3.org/2000/svg" xmlns:xlink="http://www.w3.org/1999/xlink" x="0px" y="0px"
	 viewBox="0 0 430 430" style="enable-background:new 0 0 430 430;" xml:space="preserve">
<style type="text/css">
	.st0{fill:#08a88a;}
	.st1{fill:#121331;}
	.st2{fill:#08a88a;fill-opacity:0;}
	.st3{fill:none;}
</style>
<g>
	<path class="st0" d="M222.58,178.91c-0.21,4.9-4.34,8.7-9.24,8.49c-4.9-0.21-8.69-4.34-8.49-9.24c0.21-4.9,4.34-8.7,9.24-8.49
		C218.99,169.88,222.79,174.01,222.58,178.91z M242.72,217.77c-0.82-4.83,2.43-9.41,7.25-10.24c4.83-0.82,9.41,2.43,10.24,7.25
		c0.82,4.83-2.42,9.41-7.25,10.24C248.13,225.85,243.54,222.6,242.72,217.77z M184.81,219.99c-3.46,3.46-9.08,3.46-12.54,0
		c-3.46-3.46-3.46-9.08,0-12.54c3.46-3.46,9.08-3.46,12.54,0C188.27,210.91,188.27,216.53,184.81,219.99z M222.55,257.74
		c-3.46,3.46-9.08,3.46-12.54,0c-3.46-3.46-3.46-9.08,0-12.54c3.46-3.46,9.08-3.46,12.54,0
		C226.02,248.66,226.02,254.27,222.55,257.74z"/>
	<g>
		<path class="st2" d="M222.58,178.91c-0.21,4.9-4.34,8.7-9.24,8.49c-4.9-0.21-8.69-4.34-8.49-9.24c0.21-4.9,4.34-8.7,9.24-8.49
			C218.99,169.88,222.79,174.01,222.58,178.91z M242.72,217.77c-0.82-4.83,2.43-9.41,7.25-10.24c4.83-0.82,9.41,2.43,10.24,7.25
			c0.82,4.83-2.42,9.41-7.25,10.24C248.13,225.85,243.54,222.6,242.72,217.77z M184.81,219.99c-3.46,3.46-9.08,3.46-12.54,0
			c-3.46-3.46-3.46-9.08,0-12.54c3.46-3.46,9.08-3.46,12.54,0C188.27,210.91,188.27,216.53,184.81,219.99z M222.55,257.74
			c-3.46,3.46-9.08,3.46-12.54,0c-3.46-3.46-3.46-9.08,0-12.54c3.46-3.46,9.08-3.46,12.54,0
			C226.02,248.66,226.02,254.27,222.55,257.74z"/>
		<path class="st0" d="M216.28,266.64c-4.05,0-7.86-1.58-10.73-4.44c-5.91-5.91-5.91-15.54,0-21.45c5.92-5.92,15.54-5.91,21.46,0
			c5.91,5.92,5.91,15.54,0,21.46l0,0C224.14,265.06,220.33,266.64,216.28,266.64z M216.28,248.9c-0.66,0-1.32,0.25-1.82,0.75
			c-1,1-1,2.63,0,3.63c0.66,0.66,1.42,0.75,1.82,0.75c0.4,0,1.16-0.1,1.82-0.75c0,0,0,0,0,0c1-1,1-2.63,0-3.64
			C217.6,249.15,216.94,248.9,216.28,248.9z M251.43,231.46c-3.11,0-6.15-0.96-8.74-2.8c-3.31-2.34-5.5-5.83-6.18-9.83l0,0
			c-0.68-3.99,0.23-8.01,2.58-11.32s5.83-5.5,9.83-6.18c3.99-0.68,8.02,0.23,11.32,2.58c3.31,2.34,5.5,5.83,6.18,9.83
			c0.68,3.99-0.23,8.01-2.58,11.32c-2.34,3.31-5.83,5.5-9.83,6.18C253.15,231.38,252.29,231.46,251.43,231.46z M251.47,213.71
			c-0.14,0-0.29,0.01-0.44,0.04c-0.91,0.16-1.43,0.72-1.66,1.05s-0.59,1-0.44,1.92l0,0c0.16,0.91,0.72,1.44,1.05,1.67
			c0.32,0.23,1,0.59,1.92,0.44c0.91-0.16,1.44-0.72,1.67-1.05c0.23-0.32,0.59-1,0.44-1.92s-0.72-1.44-1.05-1.67
			C252.68,213.99,252.17,213.71,251.47,213.71z M178.53,228.88c-3.89,0-7.77-1.48-10.73-4.44c-2.87-2.87-4.44-6.68-4.44-10.73
			c0-4.05,1.58-7.86,4.44-10.73c5.91-5.91,15.54-5.91,21.45,0c5.91,5.91,5.91,15.54,0,21.45c0,0,0,0,0,0
			C186.3,227.4,182.42,228.88,178.53,228.88z M184.81,219.99L184.81,219.99L184.81,219.99z M178.53,211.15
			c-0.66,0-1.32,0.25-1.82,0.75c-0.66,0.66-0.75,1.42-0.75,1.82c0,0.4,0.1,1.16,0.75,1.82c1,1,2.63,1,3.63,0l0,0c1-1,1-2.63,0-3.64
			C179.85,211.4,179.19,211.15,178.53,211.15z M213.73,193.71c-0.22,0-0.44,0-0.65-0.01c-4.05-0.17-7.79-1.91-10.53-4.89
			s-4.16-6.86-3.99-10.9c0.35-8.36,7.43-14.88,15.8-14.52c8.36,0.35,14.87,7.44,14.52,15.8c-0.17,4.05-1.91,7.79-4.89,10.53
			C221.16,192.3,217.54,193.71,213.73,193.71z M213.71,175.96c-0.86,0-1.45,0.42-1.73,0.68c-0.29,0.27-0.79,0.86-0.83,1.78
			c-0.06,1.42,1.04,2.62,2.46,2.68c0.93,0.04,1.56-0.41,1.85-0.68c0.29-0.27,0.79-0.86,0.83-1.78c0.04-0.93-0.41-1.56-0.68-1.85
			c-0.27-0.29-0.86-0.79-1.78-0.83C213.79,175.97,213.75,175.96,213.71,175.96z"/>
	</g>
	<path class="st1" d="M140.18,359.73c-17.91,0-35.82-6.82-49.46-20.45l0,0c-27.27-27.27-27.27-71.64,0-98.92L240.37,90.72
		c13.21-13.21,30.77-20.49,49.46-20.49c18.68,0,36.25,7.28,49.46,20.49s20.49,30.77,20.49,49.46s-7.28,36.25-20.49,49.46
		L189.63,339.28C176,352.92,158.09,359.73,140.18,359.73z M99.63,330.37c22.36,22.36,58.74,22.36,81.1,0l149.64-149.64
		c10.83-10.83,16.79-25.23,16.79-40.55s-5.96-29.72-16.79-40.55s-25.23-16.79-40.55-16.79c-15.32,0-29.72,5.96-40.55,16.79
		L99.63,249.28C77.27,271.63,77.27,308.01,99.63,330.37L99.63,330.37z"/>
	<path class="st0" d="M110.34,209.26l-19.62-19.62c-27.26-27.27-27.26-71.65,0-98.92c13.21-13.21,30.77-20.49,49.46-20.49
		c18.69,0,36.25,7.27,49.46,20.49l19.81,19.81l-8.91,8.91l-19.81-19.81C169.9,88.8,155.5,82.83,140.17,82.83
		c-15.32,0-29.71,5.96-40.55,16.79c-22.35,22.36-22.35,58.74,0,81.1l19.62,19.62L110.34,209.26z"/>
	<path class="st0" d="M289.82,359.73c-17.91,0-35.82-6.82-49.45-20.45l-19.98-19.98l8.91-8.91l19.98,19.98
		c22.36,22.36,58.73,22.36,81.09,0c22.36-22.36,22.36-58.73,0-81.09l-19.2-19.2l8.91-8.91l19.2,19.2
		c27.27,27.27,27.27,71.64,0,98.91C325.64,352.91,307.73,359.73,289.82,359.73z"/>
</g>
</svg>
