<?xml version="1.0" encoding="utf-8"?>
<!-- Generator: Adobe Illustrator 24.1.2, SVG Export Plug-In . SVG Version: 6.00 Build 0)  -->
<svg version="1.1" id="Warstwa_1" xmlns="http://www.w3.org/2000/svg" xmlns:xlink="http://www.w3.org/1999/xlink" x="0px" y="0px"
	 viewBox="0 0 430 430" style="enable-background:new 0 0 430 430;" xml:space="preserve">
<style type="text/css">
	.st0{fill:#121331;}
	.st1{fill:#08A284;}
	.st2{fill:none;stroke:#08A284;stroke-width:12;stroke-linecap:round;stroke-linejoin:round;stroke-miterlimit:10;}
	.st3{fill:none;stroke:#121331;stroke-width:12;stroke-linecap:round;stroke-linejoin:round;stroke-miterlimit:10;}
	.st4{fill:#08A688;}
	.st5{fill:#08a88a;}
	.st6{fill:#08a88a;}
</style>
<g>
	<g>
		<path class="st5" d="M173.24,354.2c-17.9,0-35.35-3.49-51.88-10.36l-0.15-0.06c-5.94-2.47-12.19-4.09-18.59-4.83l-23.09-2.67
			c-9.38-1.08-16.45-9.01-16.45-18.45v-23.29c0-41.69,33.92-75.6,75.61-75.6h69.61c12.2,0,24.33,2.98,35.07,8.61
			c2.93,1.54,4.07,5.17,2.53,8.1c-1.54,2.93-5.16,4.07-8.1,2.53c-9.15-4.8-19.08-7.23-29.49-7.23h-69.61
			c-35.08,0-63.61,28.53-63.61,63.6v23.29c0,3.34,2.5,6.15,5.83,6.53l23.09,2.67c7.5,0.87,14.84,2.77,21.79,5.66l0.15,0.06
			c15.08,6.27,30.99,9.45,47.3,9.45c10.15,0,20.28-1.26,30.11-3.75c3.21-0.81,6.48,1.13,7.29,4.35c0.81,3.21-1.13,6.48-4.35,7.29
			C195.49,352.81,184.37,354.2,173.24,354.2z"/>
		<path class="st5" d="M173.49,207.41c-30.32,0-54.9-23.74-55.96-54.05l-1.63-46.78c-0.53-15.32,5.04-29.82,15.68-40.84
			s24.95-17.09,40.27-17.09h3.25c15.33,0,29.63,6.07,40.27,17.09c10.65,11.02,16.22,25.53,15.68,40.84l-1.63,46.78
			C228.39,183.67,203.81,207.41,173.49,207.41z M171.86,60.64c-12.04,0-23.28,4.77-31.64,13.43c-8.36,8.66-12.74,20.06-12.32,32.09
			l1.63,46.78c0.83,23.81,20.14,42.46,43.97,42.46s43.14-18.65,43.97-42.46l1.63-46.78c0.42-12.03-3.96-23.43-12.32-32.09
			c-8.36-8.66-19.6-13.43-31.64-13.43H171.86z"/>
	</g>
	<path class="st0" d="M360.92,256.78h-29.76v-42.5c0-3.31-2.69-6-6-6h-84.58c-3.31,0-6,2.69-6,6v42.5h-29.76c-3.31,0-6,2.69-6,6
		v112.57c0,3.31,2.69,6,6,6h35.76h0.58h24.12h35.19h24.12h0.57h35.76c3.31,0,6-2.69,6-6V262.78
		C366.92,259.47,364.24,256.78,360.92,256.78z M246.58,260.23v-39.95h72.58v39.95c0,1.27,0,1.67,0,2.58c0,1.63,0,1.19,0,2.51v104.03
		h-12.7v-50.29c0-3.31-2.69-6-6-6h-35.19c-3.31,0-6,2.69-6,6v50.29h-12.7V265.33 M210.81,268.78h23.76v100.57h-23.76V268.78z
		 M271.27,369.36v-44.29h23.19v44.29H271.27z M354.92,369.36h-23.76V268.78h23.76V369.36z"/>
	<g>
		<path class="st1" d="M270.17,256.09h6.69v6.69c0,3.31,2.69,6,6,6s6-2.69,6-6v-6.69h6.69c3.31,0,6-2.69,6-6s-2.69-6-6-6h-6.69
			v-6.69c0-3.31-2.69-6-6-6s-6,2.69-6,6v6.69h-6.69c-3.31,0-6,2.69-6,6S266.86,256.09,270.17,256.09z"/>
		<path class="st1" d="M300.18,286.13H265.5c-3.31,0-6,2.69-6,6s2.69,6,6,6h34.68c3.31,0,6-2.69,6-6S303.49,286.13,300.18,286.13z"
			/>
	</g>
</g>
</svg>
