<?xml version="1.0" encoding="utf-8"?>
<!-- Generator: Adobe Illustrator 24.1.2, SVG Export Plug-In . SVG Version: 6.00 Build 0)  -->
<svg version="1.1" id="Warstwa_3" xmlns="http://www.w3.org/2000/svg" xmlns:xlink="http://www.w3.org/1999/xlink" x="0px" y="0px"
	 viewBox="0 0 430 430" style="enable-background:new 0 0 430 430;" xml:space="preserve">
<style type="text/css">
	.st0{fill:#121331;}
	.st1{fill:#08a88a;}
	.st2{fill:none;stroke:#08a88a;stroke-width:12.25;stroke-miterlimit:14;}
	.st3{fill-opacity:0;}
	.st4{fill:#131432;}
	.st5{fill:none;}
</style>
<g>
	<path class="st0" d="M191.03,343.28c-40.41,0-78.4-15.74-106.97-44.31c-58.98-58.98-58.98-154.96,0-213.94
		c28.57-28.57,66.56-44.31,106.97-44.31c40.41,0,78.4,15.74,106.97,44.31c58.98,58.98,58.98,154.96,0,213.94
		C269.43,327.54,231.44,343.28,191.03,343.28z M191.03,52.97c-37.14,0-72.05,14.46-98.31,40.72c-54.21,54.21-54.21,142.41,0,196.62
		c26.26,26.26,61.17,40.72,98.31,40.72c37.14,0,72.05-14.46,98.31-40.72c54.21-54.21,54.21-142.41,0-196.62l0,0
		C263.09,67.43,228.17,52.97,191.03,52.97z"/>
	<path class="st1" d="M82.11,153.84c-0.79,0-1.6-0.15-2.38-0.46c-3.26-1.32-4.84-5.03-3.53-8.29c6.18-15.32,15.29-29.07,27.07-40.85
		c13.9-13.9,31.09-24.36,49.71-30.25c3.35-1.06,6.93,0.8,8,4.15c1.06,3.35-0.8,6.93-4.15,8c-16.92,5.36-31.91,14.48-44.55,27.12
		c-10.56,10.56-18.73,22.88-24.26,36.6C87.02,152.33,84.63,153.84,82.11,153.84z"/>
	<path class="st0" d="M384.12,390.51c-1.86,0-3.72-0.7-5.15-2.11l-88.05-86.54c-2.9-2.85-2.94-7.5-0.09-10.39
		c2.85-2.89,7.5-2.94,10.39-0.09l88.05,86.54c2.9,2.85,2.94,7.5,0.09,10.39C387.93,389.77,386.03,390.51,384.12,390.51z"/>
</g>
</svg>
